<?xml version="1.0" encoding="UTF-8" standalone="no"?>
<!-- Created with Inkscape (http://www.inkscape.org/) -->

<svg
   xmlns:dc="http://purl.org/dc/elements/1.1/"
   xmlns:cc="http://creativecommons.org/ns#"
   xmlns:rdf="http://www.w3.org/1999/02/22-rdf-syntax-ns#"
   xmlns:svg="http://www.w3.org/2000/svg"
   xmlns="http://www.w3.org/2000/svg"
   xmlns:sodipodi="http://sodipodi.sourceforge.net/DTD/sodipodi-0.dtd"
   xmlns:inkscape="http://www.inkscape.org/namespaces/inkscape"
   width="196.68163mm"
   height="269.57977mm"
   viewBox="0 0 196.68163 269.57977"
   version="1.1"
   id="svg14983"
   inkscape:version="0.92.1 r15371"
   sodipodi:docname="OrmDrakeRitadAvMariaOhlsson_20210515Lördag.svg">
  <defs
     id="defs14977" />
  <sodipodi:namedview
     id="base"
     pagecolor="#ffffff"
     bordercolor="#666666"
     borderopacity="1.0"
     inkscape:pageopacity="0.0"
     inkscape:pageshadow="2"
     inkscape:zoom="0.495"
     inkscape:cx="-153.99049"
     inkscape:cy="607.40638"
     inkscape:document-units="mm"
     inkscape:current-layer="layer1"
     showgrid="false"
     inkscape:window-width="1078"
     inkscape:window-height="993"
     inkscape:window-x="50"
     inkscape:window-y="7"
     inkscape:window-maximized="0" />
  <metadata
     id="metadata14980">
    <rdf:RDF>
      <cc:Work
         rdf:about="">
        <dc:format>image/svg+xml</dc:format>
        <dc:type
           rdf:resource="http://purl.org/dc/dcmitype/StillImage" />
        <dc:title></dc:title>
      </cc:Work>
    </rdf:RDF>
  </metadata>
  <g
     inkscape:label="Layer 1"
     inkscape:groupmode="layer"
     id="layer1"
     transform="translate(-10.216764,-17.43397)">
    <path
       style="fill:#000000;stroke-width:0.07609487"
       d="m 64.756317,286.94641 c -8.687549,-1.22852 -11.405072,-11.28468 -8.206091,-18.50302 1.769986,-6.77612 5.933815,-12.25905 11.570607,-16.34255 8.522334,-8.05982 20.673472,-11.36103 32.057637,-12.87334 12.88257,-1.3124 25.13649,3.25055 37.86393,3.90682 9.56831,-0.20104 20.60005,-4.88778 22.20886,-15.46003 2.96004,-13.00904 -10.97461,-5.12216 -17.8329,-8.42676 -8.06373,-1.8974 -17.61784,-2.67349 -23.81143,-8.69411 -5.02419,4.75271 -9.68567,6.34822 -15.63281,9.81563 -8.767775,6.21749 -19.435911,10.81405 -30.405183,9.54194 5.491552,7.19584 -2.955466,20.36495 -9.829194,11.29959 -4.805915,-8.91131 12.747093,-4.83419 0.886893,-10.71715 -9.018601,-4.83876 -16.195109,-12.25133 -21.136126,-21.45821 -2.938993,-4.07238 -0.421307,-10.49805 -5.069587,-10.27117 -0.800873,0.0391 -2.512526,-0.81021 -3.753337,-0.2522 -10.022679,-3.11263 -4.289001,-15.78201 1.699442,-15.31132 1.799132,0.14141 4.259056,1.90271 3.218444,6.90936 1.521287,1.74197 -2.840375,3.43255 -1.960145,2.33612 1.960145,-2.33612 2.419702,-11.44851 -4.736405,-7.0465 -1.209009,1.24342 -2.019553,2.95919 -2.400701,3.97587 -2.263297,7.38284 7.931268,9.55321 11.343611,7.37754 0.252701,12.64562 10.670083,21.48163 19.056592,29.52565 5.365328,1.64869 18.009299,14.06627 6.177712,14.38706 -5.156854,-5.42562 4.608372,-3.92568 -0.161618,-1.79623 8.442958,1.75364 -3.505865,-8.29987 -2.033901,0.49767 7.638404,10.11469 10.775794,-5.62312 7.215402,-10.32539 6.44562,-0.92424 14.846984,0.0233 21.133515,-4.25932 10.908006,-5.84518 21.748076,-11.95322 31.363536,-19.78256 3.52562,-1.25723 7.64203,-5.54207 9.56398,-5.03821 4.61557,-1.04331 12.98014,-2.87247 16.96525,1.97185 3.47685,1.63914 6.08241,-1.0299 9.83032,-1.60486 5.83894,-0.9417 11.48385,-4.37673 14.81018,-9.73186 3.56743,-6.17626 2.87937,-13.88079 1.15672,-20.49849 -0.77227,-0.92926 -1.27444,-0.89687 -1.91235,-1.00109 -2.41981,-0.39535 -5.05204,3.66539 -11.47822,5.55279 -9.66426,2.13268 -20.46444,1.41151 -29.06395,-2.45712 -0.31397,0.50603 -6.55381,3.07252 -7.05217,3.47758 -4.80472,3.90519 -11.69392,1.53328 -8.24046,7.37395 0.39601,1.63867 1.54459,4.98262 1.54459,4.98262 -0.80571,1.48634 -1.30961,-0.98502 -2.05051,-3.32316 -1.07337,-3.38732 -3.18239,-7.67382 -4.00919,-9.04662 -4.27954,-6.34378 -8.47643,-12.03809 -14.027863,-17.18393 -4.181555,-3.88953 -8.76327,-5.24335 -13.588213,-5.10852 -3.659107,0.10225 -6.680707,1.26858 -10.9454,3.44028 -3.434451,3.96068 -23.26938,2.04284 -14.59527,6.60925 6.701682,1.84797 13.943837,4.81333 20.719903,3.17014 5.18824,0.62701 9.746149,1.27584 12.957392,5.65812 2.881108,2.82882 4.58075,8.26547 6.288341,10.58996 0.40574,3.68074 2.80692,8.08837 4.54146,11.74012 4.094,0.48999 9.00936,-5.55625 13.93245,-6.29059 11.90651,-6.27949 27.01495,-7.52067 38.75826,-0.52412 3.84939,2.04664 8.71757,5.59988 10.73811,9.41013 -1.79299,0.8019 -2.10343,-2.9122 -4.01869,-3.56128 -6.02097,-5.15189 -15.15891,-9.47188 -22.67152,-9.47981 -12.62819,-0.39921 -24.54603,5.29441 -34.99214,11.89152 -2.90957,2.5276 -7.531481,5.60479 -11.50716,7.98676 -7.963293,5.2552 -19.218211,6.05174 -26.639017,-0.60556 -6.76858,-4.11965 -9.825369,-13.06947 -7.159737,-20.24124 -5.059237,-1.21465 -10.119688,-3.18523 -14.744291,-5.255 -2.101476,5.74267 -4.216367,12.81048 -9.928852,15.7854 -9.310817,1.95279 -1.7617,-13.15063 -1.070225,-4.00954 -3.65107,-5.74624 -2.676959,7.31305 3.177878,1.47916 3.315535,-5.1049 11.188373,-14.51201 1.74409,-17.37543 -6.86887,-3.25182 -9.992206,-14.27494 -17.454205,-14.58649 -0.857635,8.65821 -14.8679161,5.48029 -12.722695,-2.70933 4.254667,-6.90495 7.047463,0.92787 5.871377,3.51012 6.400331,-3.22665 -6.144106,-12.13029 -2.427637,-18.8896 0.84174,-10.69195 7.893422,-19.39034 13.695747,-28.00084 2.822623,-3.55771 5.06209,-5.62675 5.511239,-8.18484 0,0 0.139933,-0.44091 -1.717757,-2.77351 -0.190485,-0.23918 -0.623214,-3.079391 -0.852826,-3.299437 -1.307238,-9.331012 12.965531,-4.358884 7.255462,1.058839 2.684146,0.966408 8.189695,-4.964721 11.667927,-7.397568 8.65204,-6.192399 18.819038,-10.216682 28.933983,-13.309858 8.659489,-1.906737 13.241666,-1.930541 20.385251,-10.030289 3.774368,-3.707794 8.590608,-7.198556 12.830168,-9.506574 -1.59126,-3.412134 -5.13786,-7.773286 -7.8907,-8.995134 -2.14664,-1.674429 -6.57384,-3.721992 -8.356185,-2.318871 4.156641,5.821846 -1.32813,13.267147 -6.962681,14.515489 -4.831797,1.481313 -12.96446,0.164823 -12.718244,-6.842088 -1.217012,-8.454875 11.004603,-8.973006 13.06788,-1.798736 0.121663,-7.050959 -8.841574,-8.706441 -14.051587,-7.443515 -11.358009,1.89059 -20.732816,9.709637 -26.856621,19.000066 -6.468813,6.484431 4.482538,9.487424 -1.222375,16.180915 -4.78446,-1.00109 -4.096588,4.698542 -7.923689,6.675413 -8.364132,3.258237 -8.225668,-15.794514 -0.02337,-8.663404 3.429173,2.814849 1.312341,-11.873357 3.936127,-14.9157 1.743792,-5.16883 -3.497787,3.67071 -3.973794,4.833138 -2.177969,5.035635 -5.389314,11.518396 -11.642857,11.44883 -7.946373,-3.283697 0.458994,-12.925975 5.445512,-11.677126 2.056945,-11.610949 4.439011,-26.317719 16.218123,-32.106864 -0.93247,-1.670655 -2.590587,-0.877083 -1.480898,-4.341326 0.763584,-2.383767 1.91801,-3.243954 3.704326,-3.214849 1.040954,0.01696 2.345831,0.506593 2.345831,0.506593 1.354396,0.861668 3.539672,3.982821 3.905024,4.885966 4.672268,-1.71021 11.133129,-4.914118 5.57172,-7.124731 -0.474564,-0.188635 0,0 -0.578735,-1.835148 -0.588651,-4.244188 2.825772,-6.159487 6.33859,-6.555754 5.947388,-0.670901 9.026001,3.86311 5.909709,9.074347 13.620656,-4.26426 27.993634,-0.792101 41.083154,3.62642 2.02938,1.133836 13.02255,-0.510269 6.77329,-2.672983 -2.0108,-2.638687 -2.7994,-8.20613 -0.49945,-10.313284 2.56322,-2.348359 5.406,-3.519001 9.82846,0.411532 4.48148,3.591775 2.54634,9.571141 0.11259,12.169763 -2.72595,3.231548 -8.63072,2.708685 -8.10588,8.099653 2.29908,10.361795 7.68485,19.179393 10.38553,25.131203 0.14105,0.31084 0.16904,1.073591 1.60899,1.046532 0.93965,-0.01766 7.95842,0.357139 9.18437,0.628754 9.35122,2.071794 19.9057,11.852663 25.02793,22.708831 2.39415,6.108921 1.72803,15.727565 -5.49876,17.956815 -6.72758,2.11805 -5.98918,-10.573748 -0.66714,-4.42129 -0.79625,1.32329 -4.01532,-3.543876 -2.92885,2.5318 2.84281,2.38858 6.04544,1.04198 5.40947,-1.24566 0.9169,-2.89506 -1.35837,-4.89769 -4.7377,-6.742881 l 0.56537,-0.268474 c 1.06243,-0.504514 6.10777,4.251515 5.36704,7.329535 2.86918,-3.63775 2.55265,-11.714204 1.38241,-14.775643 -1.93352,-6.513259 -8.28148,-11.845336 -13.83037,-16.652038 -0.55735,-0.372688 -3.43106,-2.639927 -5.14004,-3.342423 -2.34678,-1.114228 -4.70922,-1.448107 -7.41556,-2.10072 -4.24763,-1.132133 -7.34383,-1.261635 -8.21851,0.482296 -1.79522,3.579277 0.33351,12.369113 -1.21032,18.332285 -3.88514,6.160127 2.97578,11.286762 3.54521,17.555933 3.23405,13.45055 1.32315,28.88537 -2.55596,40.94639 2.38664,5.34421 6.41542,4.83373 10.31561,2.02004 7.69975,-3.66374 16.28985,-5.70766 24.73344,-5.82437 2.49704,0.84892 2.94702,-4.32032 4.1601,-6.33161 0.96082,-1.94197 1.596,-4.872 2.02731,-6.79113 1.94207,-6.83773 0.0674,-26.95497 -1.48032,-22.40541 -2.9806,4.8148 -10.89256,8.85258 -15.70907,4.21879 -5.74918,-2.8541 -2.34273,-14.872872 4.21904,-12.657765 -0.43137,0.163875 -0.39214,0.349602 -0.80239,0.267718 -0.82632,-0.164928 -3.36933,0.676758 -3.91644,1.940229 -4.64259,5.975838 1.91087,13.534018 8.58966,10.582068 5.52661,-0.80725 6.54131,-8.16018 9.0489,-8.04381 3.43894,11.1088 2.80531,23.35961 -1.16562,34.26849 -3.81138,7.82051 -9.50109,20.28832 -16.32261,21.92059 -8.14385,3.32228 -15.54522,8.13651 -22.85225,12.97996 11.84561,4.59816 26.55974,5.71884 36.91756,-2.62657 12.04561,-8.76405 18.35534,-23.68689 22.1557,-37.13435 0.13342,-1.34867 0.52001,-5.97689 0.72107,-8.03108 -0.18903,-4.02199 0.22075,-8.11483 -0.41223,-11.60412 -0.59208,-5.96377 -2.09545,-11.17681 -3.75128,-16.795113 -2.9327,-7.149103 -3.71872,-9.863358 -6.75266,-15.564404 -1.5653,-3.646244 -5.57962,-7.315892 -6.71013,-9.866715 -2.34651,-1.758534 -2.90467,-3.628985 -5.57604,-5.766793 0,0 -3.13652,-2.873075 -3.14664,-2.551558 -1.04046,-0.564774 -1.46504,-1.578965 -1.82971,-2.001623 -1.40971,-1.63386 1.41935,-2.335759 4.55432,-3.109873 7.32532,-0.919708 4.64717,-8.897436 -1.32453,-8.869055 -7.31204,0.987722 2.83758,10.024002 1.66466,2.426421 -5.00295,4.037863 1.22932,-4.966052 1.20137,2.295277 -4.38993,3.889267 -10.50539,-0.231304 -15.04581,-0.648554 -8.68529,-1.189254 -16.83476,-2.479997 -24.81528,-0.941819 -1.92467,0.08092 -5.94981,1.791737 -5.43725,0.08373 9.75269,-2.682595 22.44077,-1.586596 32.1885,0.319426 3.74378,1.565003 6.07704,2.096414 7.81596,1.683371 0.47675,-0.113242 -0.75321,-1.253538 -0.83565,-2.07993 -0.10598,-1.062373 -0.60418,-2.046301 0.49721,-3.350146 6.07935,-3.864897 14.73466,7.288187 6.02934,9.644601 -3.20489,0.453597 -5.43988,0.678378 -5.36368,1.930965 0.0731,1.201124 2.3421,2.880055 4.68061,4.309138 10.29749,9.910471 17.08748,22.713948 20.92804,36.375962 3.52422,9.294772 2.30944,19.431012 2.07896,29.486762 -0.0768,8.22339 -6.48445,17.30255 -7.59503,23.92941 10.27321,9.39529 9.53173,20.77797 9.72167,33.03899 0.58721,4.40837 1.33842,3.06605 2.22137,0.25634 8.10696,-6.37956 10.94393,11.56816 1.62977,10.66136 -3.67216,-0.5222 -4.97058,-4.21309 -6.25551,-6.76572 -3.26552,9.6297 -11.15855,17.14834 -19.32621,22.78689 4.46748,11.66865 0.81202,26.38165 -10.30805,33.05032 -3.70552,3.90525 -15.79025,3.13985 -6.94829,9.1355 0.94623,10.71124 -15.95301,6.99686 -13.54685,1.07935 0.29623,-0.72852 -0.004,-3.49667 0.47667,-4.35697 -14.5987,0.36933 -29.45497,-3.85123 -44.03693,-4.18073 -6.234086,1.77694 -12.395054,1.15616 -18.038364,4.86813 -6.244635,3.58974 -13.805885,6.45777 -17.373074,13.07994 4.09645,-3.94837 11.649041,1.51638 11.22729,6.57274 1.300843,8.16944 -3.166146,15.51042 -12.189091,14.65965 z m 1.141422,-1.62819 c 8.909068,0.13347 12.950346,-12.81004 6.430024,-18.23583 -8.650508,-4.87805 -16.504193,12.93163 -6.044119,13.68218 9.550622,-1.7944 -0.248679,-14.74782 -1.629161,-4.83408 4.398855,-1.03609 4.861772,2.41925 -0.380958,1.64944 -4.701303,-12.06511 15.230661,-5.45444 5.663054,2.52737 -4.255894,5.24977 -12.928447,-0.74696 -10.097682,-6.90682 3.528711,-9.65891 11.827569,-16.5653 20.935395,-20.79894 12.585077,-7.62423 28.012778,-6.48503 42.004378,-4.63592 8.18804,0.84554 16.80391,0.84202 24.65103,2.97472 0.66379,2.93623 -4.07458,6.98244 0.56741,9.42648 2.94143,1.1434 6.37609,0.80426 7.8801,-1.51301 3.06817,-0.63709 -1.14655,-8.78007 -3.64936,-4.08809 -4.59632,-0.59044 4.52682,4.51924 0.39944,0.48744 2.87906,-2.40776 3.51277,2.7669 1.80733,3.27378 -11.72007,-2.49307 1.70742,-11.1032 7.76168,-11.91201 9.22943,-5.24575 15.23156,-15.05592 13.6728,-26.02602 0.30231,-4.32502 -0.37609,-7.35042 -6.65404,-3.74793 -3.90037,2.95088 -11.0502,0.27707 -7.39891,6.833 0.85448,10.15107 -7.56455,19.07626 -17.54013,20.03062 -14.14519,3.17825 -27.85512,-5.14703 -42.15655,-2.83691 -17.586884,0.35065 -35.885225,10.07819 -43.411231,26.38637 -2.060492,5.16555 -3.182674,11.41838 0.76005,15.668 1.421878,1.88924 4.146617,2.76667 6.42945,2.59616 z m 89.221231,-25.64594 c 0.20627,-0.35359 0.20627,0.35359 0,0 z m -1.78821,-41.21222 c 6.37259,-0.88507 13.04066,-0.61072 18.37691,-4.6001 8.7806,-5.24304 14.28955,-10.31216 19.70578,-18.52608 1.80577,-2.06596 1.74715,-4.2261 3.08479,-7.04934 2.31554,1.81459 5.07745,11.57191 10.10162,6.36466 4.65581,-3.84167 -2.63093,-13.37496 -5.0351,-6.06377 -3.31494,4.13475 5.61503,5.48244 3.49419,0.97506 -1.96209,0.78238 -4.20879,1.42299 -0.90355,-1.69441 6.92839,3.34392 -3.95998,9.09324 -4.65134,2.25743 -0.7518,-2.40013 -1.6214,-2.78046 -1.40293,-5.30583 0.56559,-6.53771 -0.24397,-13.44969 -1.0331,-18.47432 -1.78448,-4.77605 -4.45297,-9.69536 -8.65932,-12.78516 -2.95558,5.24013 -6.52634,10.07791 -11.3093,13.82382 5.12639,7.8898 4.65277,20.2233 -1.91528,27.33959 -4.5738,5.80949 -13.01636,5.81697 -18.51574,8.55268 -6.85743,1.97143 -14.45965,2.0411 -20.70912,-1.61742 -3.98156,1.96939 -14.41511,5.20417 -13.19463,9.35299 9.64206,5.54065 21.57251,7.48095 32.56573,7.4502 z M 81.070022,207.11618 c 8.864724,-0.068 16.58809,-5.59044 23.274638,-10.903 -4.21679,-5.98136 -2.86655,-15.61976 -13.84073,-12.23112 -9.350469,0.85621 -18.943971,2.02003 -28.142062,-0.52512 -2.324466,7.18299 0.892272,15.41383 7.454783,19.33717 3.225171,2.36789 7.177324,4.32405 11.253371,4.32207 z m 66.885258,-4.39169 c 0.5296,-3.73369 -14.24165,-2.76329 -9.00267,-0.9669 2.92267,0.77988 5.99056,0.96315 9.00267,0.9669 z M 77.766252,183.91061 c 3.19921,0.22625 13.788568,-1.51622 17.631802,-2.07014 0,0 3.185403,-0.90759 0.969614,-4.21496 -3.829039,-9.1522 -13.358491,-9.59225 -21.795104,-9.72114 -6.400517,-1.51 -14.452454,-1.61339 -18.947621,-6.8322 -7.049326,1.38114 -21.869782,-0.82517 -24.921066,1.3885 7.729516,10.26035 19.029257,17.21565 31.534759,19.8757 5.057067,1.2304 10.322503,1.90042 15.527616,1.57424 z m 67.955018,-0.14283 c -0.0922,-0.27823 -0.18771,0.27108 0,0 z m -28.38344,-5.13698 c 14.20177,-3.65527 24.48908,-15.33845 38.11887,-20.35479 4.66228,-1.21522 8.13853,-4.41871 10.18231,-8.67522 0.92674,-0.10601 1.4964,-3.33941 2.66838,-4.54031 3.02025,-5.05731 -8.68053,-1.09886 -11.97106,-0.82309 -7.47883,1.50344 -14.37184,5.51027 -20.39342,8.9412 -8.59348,6.10402 -18.68224,9.59981 -28.99215,11.49169 3.73191,4.33733 6.59594,9.44315 9.84092,14.0432 l 0.54603,-0.0826 z m 20.83944,-9.8918 c -0.18059,-0.39929 -0.0659,0.40194 0,0 z M 18.756972,162.88061 c 3.947818,-5.39149 5.38162,-6.31513 12.365419,-2.55067 10.18118,1.01774 20.896877,0.26055 30.825086,-1.25461 7.963318,-1.25995 17.28317,-3.41567 22.980506,-9.72706 -3.018668,-5.04259 -5.250456,-10.54301 -7.143208,-16.08637 -10.678143,6.4613 -22.55721,12.40862 -35.438395,11.41118 -4.023394,-2.22085 -8.444114,-5.8258 -7.691068,-11.28046 2.224233,-9.1631 9.834266,-15.26121 16.704285,-21.28594 9.463214,-7.00174 19.434566,-13.703486 30.658725,-17.433137 1.927097,-2.56516 1.830596,-4.600694 4.044555,-7.850791 1.97216,-3.511825 2.785987,-4.701815 4.797613,-8.042165 -3.748057,-1.933017 -11.256542,1.589643 -15.825645,2.300949 -7.006784,2.515527 -13.789482,5.733673 -20.488009,8.893303 -5.443887,3.342255 -9.743928,8.251905 -15.535985,11.173031 -6.652517,3.21847 -5.964481,-8.834 -2.542809,-3.305889 -5.948033,1.007092 5.120843,4.121549 0.998549,-2.623625 -7.155538,-4.91106 -8.118022,10.943164 -0.968366,8.166064 0.952686,1.62409 -3.87397,3.95914 -4.652947,5.33787 -3.901246,5.07899 -7.577051,9.89857 -10.541223,15.7843 -5.665021,8.42922 -8.651335,19.82367 -3.593358,29.19813 5.630357,2.93927 -1.322131,11.25658 -3.511505,4.6585 3.537973,-0.56219 -0.732973,-7.32666 -2.940176,-0.79056 -0.299315,4.05181 3.703685,6.46723 7.497956,5.30795 z m 89.944138,0.41707 c 5.01826,-0.56498 18.55716,-4.38911 8.33238,-7.15242 -4.47976,2.55072 -20.217924,4.7263 -8.33238,7.15246 z m 14.99068,-4.47138 c 4.87143,-2.11548 8.85781,-5.03046 13.22096,-7.99779 -3.56083,-4.17137 -5.33606,-4.66252 -8.04299,-9.452 -2.86321,-1.64162 -6.54398,-7.25233 -9.97258,-10.29628 -2.84656,-4.3359 -7.02961,-8.1162 -12.51415,-0.39464 -8.678506,6.28387 -4.71061,7.59491 2.04739,13.74108 5.27064,4.43828 9.55464,9.99318 14.64145,14.55638 l 0.61996,-0.15671 z m -18.64324,-0.20214 c 4.85589,-1.98157 11.98494,-2.4789 11.13837,-4.71923 -0.37735,-0.99861 -2.46067,-3.7846 -4.23081,-4.82993 -3.36008,-4.53614 -5.78383,-5.06009 -7.69214,-6.52377 -3.56231,-2.7323 -6.559446,-5.58177 -6.559446,-5.58177 -4.543054,-3.54991 -0.760963,-22.01256 -8.078155,-13.34902 -2.899179,2.99514 -7.752669,5.96912 -10.521687,7.42962 -0.07121,6.41405 3.589212,12.11503 6.41243,17.63807 3.389791,4.91552 10.832986,4.4547 15.141288,9.29421 1.18338,1.19012 2.93161,0.53468 4.39015,0.64182 z m 30.93663,-9.95343 c -0.53742,-0.20693 0.30022,0.34695 0,0 z m -51.900768,-2.2653 c -0.09203,-0.27823 -0.187661,0.27109 0,0 z m -1.597992,-2.35917 c -0.283116,-0.28577 -0.415893,0.27859 0,0 z m 50.24544,-0.0913 c 5.14066,-11.41552 5.06343,-24.97516 3.48987,-36.80131 -1.8408,-6.13085 -4.19234,-14.355364 -9.83516,-19.094173 -3.74872,-3.012215 -8.48097,-9.080233 -13.3996,-8.313367 -3.36611,3.53845 -6.26577,6.519511 -8.67812,10.261431 -5.557831,5.093982 1.23597,4.14636 5.03117,4.214164 4.69618,1.823193 6.35798,7.538535 8.93648,11.746735 3.85869,7.40582 5.08023,16.47197 1.41565,24.22904 4.19188,4.47073 8.64125,9.71582 13.03971,13.75748 z m -86.930404,-0.78379 c 4.398468,-4.66143 10.030725,-10.27299 17.204679,-11.82459 6.526154,-3.09329 14.631629,0.2549 20.578634,-3.92492 4.389027,-3.01123 7.855209,-6.53875 12.099783,-10.7319 5.021898,-6.59935 -13.893274,-3.1121 -18.781116,-5.27709 -13.492179,-0.69646 -49.241301,15.15222 -39.32883,28.63809 1.857434,2.16183 5.474917,3.3991 8.22685,3.12041 z m 5.105595,-0.007 c 9.959388,-1.03282 19.122318,-6.02362 26.937582,-11.59762 -2.776459,-2.4537 -10.053714,-0.7163 -14.426885,0.5554 -5.638094,2.44139 -12.826716,4.90059 -15.041548,11.16968 0.844478,-0.0159 1.692507,0.003 2.530851,-0.12746 z m 52.239129,-2.99897 c -0.18771,-0.27108 -0.0922,0.27823 0,0 z m -0.93883,-0.85607 c -0.13326,0.0761 0.12362,0.41897 0,0 z m 33.40092,-1.24409 c -0.29593,-0.35004 0.11685,0.52739 0,0 z M 99.321723,136.9036 c 6.470667,-8.32744 16.526447,-14.1377 20.436587,-24.38469 -2.25826,-6.04473 -4.72838,-13.369542 -10.32305,-16.874864 -4.25483,7.984304 -8.09635,16.278024 -13.50152,23.557124 -3.491547,2.54456 3.384505,17.70474 3.387933,17.70244 z m 36.925727,-3.16383 c -0.17757,-0.26143 -0.21919,0.14514 0,0 z m -15.82773,-1.59983 c -0.70882,-0.58144 -0.17899,0.15188 0,0 z m -50.183521,-1.70108 c -0.644438,0.36178 0.09752,0.26087 0,0 z m 48.562011,-1.09784 c 2.31036,-3.70529 2.93343,-12.25006 1.01391,-14.47808 -0.62917,4.76436 -9.95105,8.91025 -3.24616,12.13442 1.01492,-0.53136 1.13483,3.20157 2.23225,2.34366 z m 1.36911,-1.82183 c -0.14657,0.033 0.10908,0.33366 0,0 z m -4.54158,-0.0145 c -0.004,-0.36182 -0.39702,0.0461 0,0 z m -30.666237,-0.20841 c -0.264128,-0.13127 -0.125467,0.35525 0,0 z m 52.277177,0.009 c -0.19443,-0.27301 -0.19443,0.27301 0,0 z m 0.58883,-1.69577 c -0.49877,-0.41272 -0.23844,0.5237 0,0 z m -17.12553,-0.82962 c -0.14657,0.033 0.10908,0.33366 0,0 z m -32.544493,-0.44233 c -0.194414,-0.27299 -0.194414,0.27299 0,0 z M 77.856932,110.53943 c 0.886364,-4.65632 1.724111,-9.6279 3.360036,-14.368414 -8.374415,2.566686 -16.400561,7.826624 -23.218181,12.495684 -6.196126,4.34702 -13.019112,9.22344 -17.098188,15.29045 12.381977,-8.12786 25.112932,-13.84526 36.956333,-13.41772 z m 60.028978,12.51244 c -0.49896,-0.5007 0.14501,0.73225 0,0 z m 0.11172,-1.91478 c -0.23638,-0.27595 -0.1444,0.38318 0,0 z m -16.50175,-0.52822 c 0.70128,-0.26133 -0.95078,0.27627 0,0 z m -26.753263,-2.49312 c -0.295603,-0.0611 0.04429,0.45576 0,0 z m 42.722343,-0.32648 c -0.23637,-0.27595 -0.14441,0.38316 0,0 z m 57.04704,-0.69464 c -0.14657,0.033 0.10908,0.33366 0,0 z m -95.650969,-4.31668 c 3.757419,-5.30912 6.555859,-11.425 9.541779,-17.256424 -0.89031,-1.022703 -7.40805,-1.269153 -8.33801,1.726234 -0.830717,4.36842 -6.055253,13.11646 -1.610054,15.55303 l 0.406347,-0.0229 z m -5.378903,-0.31568 c -0.236403,-0.27595 -0.144346,0.38316 0,0 z m 1.946271,-0.75643 c 1.202107,-5.7023 1.667651,-12.697475 5.043441,-17.670825 3.36613,-6.174552 8.49607,-10.86147 12.51179,-15.982146 1.88691,-1.261421 2.3117,-2.873333 2.5917,-4.634426 0.66702,-4.195256 -1.72964,-9.237093 -3.30784,-12.404119 -0.98213,-0.762566 -4.92231,1.619882 -6.19173,2.931457 -7.246588,6.58109 -13.570808,12.219935 -17.83389,20.942042 -1.805108,3.421616 -4.029846,6.876687 -5.094948,9.712999 -2.230749,2.687898 -1.904786,5.871888 -2.834178,8.544308 -1.278691,4.84587 -0.293949,2.14289 -1.278691,4.84587 -1.647775,5.96446 14.10659,2.65408 16.394346,3.71484 z m -12.142982,-0.22831 c -0.09203,-0.27823 -0.187661,0.27109 0,0 z m 17.349633,-0.0299 c -0.56358,-0.27427 -0.13723,0.17652 0,0 z m -3.991858,-2.47613 c -0.186138,-0.33441 -0.178509,0.22798 0,0 z m -30.93569,-5.51862 c -0.542575,-0.26514 -0.136951,0.13168 0,0 z m 4.752679,-3.38458 c 0.08549,-0.293766 -0.295048,0.0479 0,0 z m 12.368666,-6.549155 c -0.09204,-0.278195 -0.187659,0.271052 0,0 z m 47.787583,-2.739413 c 2.82999,-8.265475 2.13183,-17.08586 1.70777,-25.225432 -2.80227,-8.98311 -11.07845,-23.2558 -8.97098,-29.019954 5.14995,-3.003246 12.17817,-5.726777 9.19207,-13.764739 -1.37753,-2.982217 -2.8207,-2.91268 -5.16607,-3.854958 -7.30096,-2.752089 -7.84923,10.006567 -2.34622,11.246435 4.52959,0.462754 5.77062,-8.296698 0.35613,-6.92969 -4.01308,1.247672 0.30755,5.341313 0.90742,1.898727 0.72625,2.108888 -0.81685,2.135925 -2.21747,2.550475 -3.01405,-2.999656 -0.61539,-5.210163 2.02483,-5.370145 2.70646,-0.163996 5.66677,1.802195 3.31064,5.251511 -3.12981,4.009603 -6.42755,7.097768 -11.62341,6.373547 -4.15949,-0.378089 -4.69617,-0.749902 -8.02454,-2.125687 -8.90825,-2.963843 -18.632021,-4.56768 -27.867495,-3.538185 -3.898666,0.718681 -8.194924,1.739251 -11.37845,3.512383 3.950807,-2.515857 6.413907,-12.437352 -2.31214,-10.783275 -9.181154,-0.63044 -3.480307,13.006476 0.916285,4.920917 -2.692997,-2.306903 -1.793677,-0.222815 -1.671081,0.446823 -6.565572,-2.373476 6.390959,-4.10038 1.288408,2.505111 -3.086212,4.175912 -8.482073,5.760671 -13.040904,8.186967 -1.565828,1.830857 -2.908194,5.802105 -6.225515,6.091139 -1.596754,0.805915 -2.355703,1.502256 -2.022574,2.483728 0.612738,1.805268 3.659082,3.314087 3.077126,-0.66154 -1.985029,-0.71843 5.395908,-0.504784 -0.714074,3.321109 -2.212758,-0.682066 -3.272392,-1.398873 -3.568759,-2.15724 -1.12713,-2.884198 8.785707,-6.369534 8.292901,-10.831181 -2.764567,-11.981365 -12.413948,4.685779 -2.834083,-0.135082 -3.289156,-0.445813 -2.483197,-4.037605 0.76089,-0.374171 -0.931835,3.733139 -6.026658,3.802342 -8.275259,6.629373 -5.588092,5.085843 -6.887143,11.896132 -9.325912,18.890428 -1.344,5.731431 -0.7853,13.031026 -4.609983,17.694408 -8.285355,1.267855 0.478513,-7.838758 -1.148826,-3.614967 -4.196775,1.302557 0.811648,6.172182 2.153418,-0.129391 2.919943,-5.192287 -4.664249,-4.13449 -5.453097,-0.649238 -5.067126,9.775312 9.218229,7.207569 10.366977,-0.543075 2.617832,-5.455025 5.228296,-12.405292 10.900315,-15.093159 1.284599,0.498766 -5.331679,5.55764 -4.429768,9.657206 -1.901745,5.837365 0.688617,15.066458 -5.926749,17.361785 -8.835788,-3.16061 3.238306,-5.822106 -0.57822,-3.092658 -5.971903,0.189054 6.43383,4.603834 1.338124,-2.073559 -7.21227,-3.953016 -4.575271,11.779831 1.329783,7.673337 3.178214,-4.444494 2.839597,-8.166786 7.730361,-6.976201 4.098244,-4.44222 -2.677847,-7.897356 -1.254044,-4.239764 -0.777883,3.49003 -2.211825,-6.8061 1.190412,-10.157786 7.262003,-11.740372 20.437134,-21.7744 34.868924,-20.434498 8.327208,-0.536948 12.141809,13.389562 2.031735,12.786599 -8.43566,-4.752731 4.390527,-7.399782 1.584318,-3.97572 -7.383892,-4.314016 0.623164,8.379818 2.830284,0.326689 -1.015528,-5.946488 -11.014179,-6.790604 -11.091942,0.01814 -0.808631,10.787851 16.179393,9.387636 18.459072,0.898809 1.03843,-7.910796 -5.358697,-10.469311 3.956225,-8.524211 12.215407,4.438764 18.874987,19.08601 17.654357,31.41267 3.82772,3.555078 10.62526,7.964572 13.84879,12.137185 z M 38.434061,60.161872 c -2.654591,-5.848718 6.799558,-12.940098 2.966793,-3.128799 -0.83358,1.150814 -1.758165,2.43857 -2.966793,3.128799 z m 1.418349,-2.445363 c 4.25861,-5.227907 -0.68087,-5.437873 -1.058333,0 -0.360016,2.445363 1.728859,-0.584636 1.058333,0 z m 90.23135,-37.62891 c 0.19441,-0.272997 0.19446,0.27298 0,0 z m 1.72607,67.329685 c -0.14656,0.03297 0.10907,0.333559 0,0 z M 108.6805,84.189595 c -0.30147,-0.159828 -0.0709,0.171485 0,0 z m 7.27921,-5.655519 c 1.55177,-3.581683 -3.67176,0.785414 -2.6e-4,-1.8e-5 z m 36.26766,-7.039905 c -0.1776,-0.261385 -0.21918,0.145018 0,0 z M 98.884863,70.15802 c -0.194406,-0.272969 -0.194406,0.272969 0,0 z M 83.66587,63.309471 c -0.194389,-0.272985 -0.19444,0.272969 0,0 z m 8.44655,-2.587211 c -0.187659,-0.271052 -0.09204,0.278195 0,0 z M 62.359328,51.134303 c -0.09204,-0.278199 -0.18768,0.271055 0,0 z m 7.076823,-3.119887 c -0.194379,-0.272995 -0.194431,0.272978 0,0 z m 8.892199,-1.665742 c 0.213472,-0.275348 -0.426379,0.0354 0,0 z m 46.55084,-0.824782 c -0.33198,0.178469 0.21885,0.22065 0,0 z m -2.32882,-12.728451 c -0.0922,-0.278206 -0.18769,0.271079 0,0 z m 1.5219,-2.130656 c -0.18772,-0.271048 -0.0921,0.278212 0,0 z m -2.68902,-5.65004 c -0.13325,0.07604 0.12356,0.419045 0,0 z m -21.01454,23.760618 c 0.0945,-0.300006 0.27305,0.28972 0,0 z"
       id="path15007"
       inkscape:connector-curvature="0"
       sodipodi:nodetypes="cccccccccccccscscccccccccccccccccsccsccsccscccccccccccccccccccccccccsscccccccccccccccccccccssscscscccscccsssccccccscccccsccccccccccscccccccccccccccsccccccccssccscccccccccccsccccccccccccccccccccccccccccccccccccccccccscccccccccccccccccccscccccccccccccccccccccccccccccccccccccccccccccccccccccccccscscccccccccccccccccccccccccccccccccccccccccccccccccccccccccccccccccccccccccccccccccccccccccccccccccsccccccccccccccccccccccccccccscccccccccccsccsccccccccccccccccczccccccccccccccscsccccccccccccccccccccccccccccccccc" />
    <text
       xml:space="preserve"
       style="font-style:normal;font-weight:normal;font-size:8.46666622px;line-height:1.25;font-family:sans-serif;letter-spacing:0px;word-spacing:0px;fill:#000000;fill-opacity:1;stroke:none;stroke-width:0.26458332"
       x="82.734787"
       y="270.12167"
       id="text15015"><tspan
         sodipodi:role="line"
         id="tspan15013"
         x="82.734787"
         y="270.12167"
         style="font-size:8.46666622px;stroke-width:0.26458332">Originaltecking </tspan><tspan
         sodipodi:role="line"
         x="82.734787"
         y="280.70502"
         style="font-size:8.46666622px;stroke-width:0.26458332"
         id="tspan15017">Maria Olsson 2020-07-25</tspan></text>
  </g>
</svg>
