<?xml version="1.0" encoding="UTF-8" standalone="no"?>
<!-- Created with Inkscape (http://www.inkscape.org/) -->

<svg
   xmlns:dc="http://purl.org/dc/elements/1.1/"
   xmlns:cc="http://creativecommons.org/ns#"
   xmlns:rdf="http://www.w3.org/1999/02/22-rdf-syntax-ns#"
   xmlns:svg="http://www.w3.org/2000/svg"
   xmlns="http://www.w3.org/2000/svg"
   xmlns:xlink="http://www.w3.org/1999/xlink"
   xmlns:sodipodi="http://sodipodi.sourceforge.net/DTD/sodipodi-0.dtd"
   xmlns:inkscape="http://www.inkscape.org/namespaces/inkscape"
   width="66.508362mm"
   height="103.80226mm"
   viewBox="0 0 66.508362 103.80226"
   version="1.1"
   id="svg217"
   inkscape:version="0.92.1 r15371"
   sodipodi:docname="U47_med_runböjningslinje_2010709Fr.svg">
  <defs
     id="defs211" />
  <sodipodi:namedview
     id="base"
     pagecolor="#ffffff"
     bordercolor="#666666"
     borderopacity="1.0"
     inkscape:pageopacity="0.0"
     inkscape:pageshadow="2"
     inkscape:zoom="1.5004829"
     inkscape:cx="327.46864"
     inkscape:cy="142.04861"
     inkscape:document-units="mm"
     inkscape:current-layer="layer10"
     showgrid="false"
     inkscape:window-width="1145"
     inkscape:window-height="980"
     inkscape:window-x="2664"
     inkscape:window-y="104"
     inkscape:window-maximized="0"
     showguides="false" />
  <metadata
     id="metadata214">
    <rdf:RDF>
      <cc:Work
         rdf:about="">
        <dc:format>image/svg+xml</dc:format>
        <dc:type
           rdf:resource="http://purl.org/dc/dcmitype/StillImage" />
        <dc:title />
      </cc:Work>
    </rdf:RDF>
  </metadata>
  <g
     inkscape:groupmode="layer"
     id="layer2"
     inkscape:label="RuneStones"
     style="display:inline;opacity:1"
     transform="translate(-16.484942,-143.67087)">
    <g
       inkscape:groupmode="layer"
       id="layer8"
       inkscape:label="U47"
       style="display:inline">
      <g
         inkscape:groupmode="layer"
         id="layer1"
         inkscape:label="U47_RunStenNrOrt"
         style="display:inline">
        <text
           xml:space="preserve"
           style="font-style:normal;font-variant:normal;font-weight:normal;font-stretch:normal;font-size:1.88075256px;line-height:1.25;font-family:'Elder Futhark';-inkscape-font-specification:'Elder Futhark';letter-spacing:0px;word-spacing:0px;opacity:1;fill:#000000;fill-opacity:1;stroke:none;stroke-width:0.1007546"
           x="22.142317"
           y="247.08192"
           id="text5166"><tspan
             sodipodi:role="line"
             id="tspan5164"
             x="22.142317"
             y="247.08192"
             style="font-style:normal;font-variant:normal;font-weight:normal;font-stretch:normal;font-size:1.88075256px;font-family:sans-serif;-inkscape-font-specification:sans-serif;stroke-width:0.1007546">U 47, Lovö kyrka i Lovö socken, Ekerö kommun i Uppland.</tspan></text>
      </g>
      <g
         inkscape:groupmode="layer"
         id="layer10"
         inkscape:label="U47_RuneTexts"
         style="display:inline">
        <text
           xml:space="preserve"
           style="font-style:normal;font-variant:normal;font-weight:normal;font-stretch:normal;font-size:10.58333302px;line-height:0.34999999em;font-family:Hnias;-inkscape-font-specification:Hnias;letter-spacing:0px;word-spacing:0px;display:inline;opacity:1;fill:#000000;fill-opacity:1;stroke:none;stroke-width:0.26458332"
           id="text12370"
           y="9.7928438"><textPath
             xlink:href="#path12287"
             id="textPath12372"><tspan
   style="stroke-width:0.26458332"
   id="tspan12368"><tspan
     id="tspan12366"
     style="font-style:normal;font-variant:normal;font-weight:normal;font-stretch:normal;font-size:4.93888855px;line-height:0.34999999em;font-family:Hnias;-inkscape-font-specification:Hnias;stroke-width:0.26458332"
     y="151.1451"
     x="97.818527">᛫ᛋᚴᚱᛁᚠ  ᛬ᛉᛁᛏ᛬   ᚱᚾᚢᚱ᛬ ᚺᛂᚱ᛫</tspan></tspan></textPath></text>
      </g>
      <g
         inkscape:groupmode="layer"
         id="layer22"
         inkscape:label="U47_Runstenen"
         style="display:inline">
        <g
           style="opacity:1"
           id="g2213">
          <path
             inkscape:connector-curvature="0"
             id="path5168"
             d="m 64.017587,237.30915 -0.37136,0.48862 -0.42999,0.41045 -0.37136,0.29318 -0.8209,0.54726 -0.62545,0.33227 -0.50817,0.33226 -0.66454,0.25409 -0.84044,0.15637 -0.91862,0.1759 -1.01635,0.0782 -0.56681,-0.0195 h -0.41044 l -0.33228,0.0391 -0.42998,0.25409 c 0,0 -0.13682,0.29317 -0.15637,0.37135 -0.0195,0.0782 -0.1759,0.43 -0.1759,0.43 0,0 0.0195,0.215 -0.0195,0.35181 -0.0391,0.13682 0.0586,0.58636 0.0586,0.58636 l 0.0586,0.5668 -0.27363,0.23454 -0.44954,0.23455 -0.42999,-0.0977 -0.39091,-0.21499 -0.35181,-0.25409 -0.31272,-0.41045 v -0.3909 l 0.0586,-0.33228 0.0782,-0.31271 0.0977,-0.27364 0.0586,-0.1759 -0.0391,-0.35181 -0.37136,-0.0782 -0.62545,-0.29318 -0.48863,-0.25409 -0.50817,-0.21499 -0.46908,-0.31273 -0.27364,-0.23454 -0.0782,-0.27363 0.0586,-0.31272 0.11727,-0.33227 c 0,0 0.0586,-0.23454 0.0977,-0.31273 0.0391,-0.0782 0.0391,-0.33226 0.0782,-0.46908 0.0391,-0.13681 0.0586,-0.37136 0.0391,-0.44954 -0.0195,-0.0782 -0.0391,-0.42999 -0.0391,-0.42999 l -0.13682,-0.41045 -0.215,-0.50818 -0.23454,-0.42998 -0.35181,-0.37137 -0.48863,-0.35181 -0.46909,-0.25408 -0.72317,-0.31273 -0.37136,-0.11726 -0.60589,0.0195 h -0.39091 l -0.42999,0.19545 -0.48863,0.27363 -0.27363,0.19546 -0.31273,0.27363 -0.13681,0.15636 -0.33227,0.41045 -0.215,0.44953 v 0.43 l -0.0195,0.54727 0.0782,0.41044 0.11727,0.43 0.13682,0.35181 0.23454,0.27363 0.48863,0.29318 0.3909,0.19545 0.41045,0.11727 c 0,0 0.21499,0.0391 0.35181,0.0586 0.13682,0.0195 0.68408,-0.0391 0.68408,-0.0391 0,0 0.25409,-0.0977 0.43,-0.15636 0.1759,-0.0586 0.37136,-0.19545 0.50817,-0.23454 0.13682,-0.0391 0.35181,-0.19546 0.41045,-0.27363 0.0586,-0.0782 0.215,-0.33227 0.215,-0.33227 0,0 0.15635,-0.17591 0.1759,-0.27363 0.0196,-0.0977 0.0782,-0.58636 0.0782,-0.58636"
             style="fill:none;stroke:#000000;stroke-width:0.19040239;stroke-linecap:butt;stroke-linejoin:miter;stroke-miterlimit:4;stroke-dasharray:none;stroke-opacity:1" />
          <path
             inkscape:connector-curvature="0"
             id="path5170"
             d="m 50.707337,238.95093 -0.54727,0.50818 -0.48863,0.31272 -0.62544,0.33227 -0.41045,0.17591 -0.54727,0.23454 -0.62544,0.25408 -0.78181,0.19546 -0.72317,0.19545 -0.70363,0.19545 h -0.62544 -0.87953 l -0.66454,-0.0586 -0.80135,-0.0977 -0.76226,-0.13681 -0.84044,-0.13682 -0.80135,-0.17591 -0.62545,-0.15636 -0.66453,-0.15636 -1.34862,-0.62545 -0.68408,-0.42999 -0.97726,-0.46909 -0.48863,-0.31272 -0.72317,-0.41045 -0.56681,-0.46908 -0.46908,-0.44954 -0.58636,-0.50817 -0.50817,-0.43 -0.46908,-0.48863 -0.46909,-0.64499 -0.31272,-0.50817 -0.31272,-0.41045 -0.33227,-0.46908 -0.33227,-0.58635 -0.21499,-0.39091 -0.215,-0.46908 -0.48863,-0.91863 -0.35181,-0.74271 -0.29318,-0.8209 -0.33227,-0.74271 -0.89908,-2.4236 -0.42999,-1.40726 -0.33227,-1.23134 -0.25408,-1.2118 -0.43,-1.25089 -0.23454,-1.07498 -0.29318,-1.28998 -0.66453,-3.0295 -0.52772,-1.89588 -0.33227,-1.34862 -0.23454,-1.09453 -0.46908,-1.95451 -0.25409,-0.8209 -0.13682,-1.25089 -0.93816,-3.00995 -0.29318,-1.36816 -0.33227,-1.52453 c 0,0 -0.29318,-1.32907 -0.31272,-1.52452 -0.0195,-0.19545 -0.23454,-1.15317 -0.23454,-1.15317 l -0.44954,-3.79175 -0.39091,-2.01315 -0.15636,-0.72318 -0.48863,-3.73312 -0.13681,-1.36816 -0.37136,-3.00996 c 0,0 -0.0782,-1.42679 -0.0782,-1.50497 0,-0.0782 -0.0586,-1.46589 -0.0586,-1.58316 0,-0.11727 -0.0391,-1.05544 -0.0391,-1.05544 l 0.0586,-1.6027 0.0586,-1.28998 0.13682,-1.05544 0.62544,-5.80491 0.31273,-1.27044 0.33227,-1.36816 0.58635,-1.93497 1.2118,-3.53767 0.6059,-1.44634 0.6059,-1.27044 0.72317,-1.28998 0.44954,-0.62545 2.44314,-3.30313 0.87954,-1.07498 1.09452,-1.13362 0.74272,-0.80135 0.72317,-0.78181 0.74272,-0.74271 1.17271,-1.0359 1.6027,-1.2118 1.25089,-0.72317 2.13042,-0.97726 0.95771,-0.48862 1.27044,-0.35182 1.2118,-0.33227 1.34862,-0.35181 1.48543,-0.25408 c 0,0 0.84044,-0.15637 0.9968,-0.15637 0.15636,0 1.85679,-0.15636 1.85679,-0.15636 l 1.95452,-0.25408 1.83724,-0.0782 h 1.50498 l 2.01315,-0.0195 1.03589,0.0782 1.32908,0.17591 3.2054,0.62544 1.68088,0.33227 1.46589,0.42999 1.75906,0.54727 1.05545,0.48863 0.89907,0.35181 1.07499,0.52772 0.93816,0.46908 0.93817,0.62545 1.03589,0.66453 0.68408,0.46909 0.91862,0.89907 0.52772,0.39091 1.89588,2.18906 0.58636,0.84044 0.84044,1.40725 0.64499,1.11407 0.70363,1.30953 0.42999,1.15316 1.46589,3.92858 0.52772,1.62225 0.54726,1.62224 0.31272,1.28998 0.33227,1.28998 0.35181,1.25089 0.31273,1.27044 0.80135,3.12722 0.33226,1.52453 0.15637,1.05544 0.21499,1.30952 0.11727,1.40725 0.0586,1.25089 0.0586,1.99361 -0.0977,1.48543 c 0,0 0.0195,2.71678 0,2.83405 -0.0195,0.11727 0.0586,2.69723 0.0586,2.69723 l 0.1759,2.14997 c 0,0 0.0977,1.48543 0.0782,1.58316 -0.0195,0.0977 0,6.15672 0,6.15672 l 0.0977,2.65815 0.0782,1.48542 -0.0782,5.17947 -0.0391,1.58315 -0.23454,4.4563 -0.215,1.71998 c 0,0 -0.0782,1.17271 -0.11727,1.25088 -0.0391,0.0782 -0.31272,2.42361 -0.31272,2.42361 0,0 -0.27363,1.83725 -0.35181,1.95451 -0.0782,0.11727 -0.43,3.51813 -0.43,3.51813 l -0.27363,1.4268 -0.48863,1.54406 -0.62544,1.97407 -0.6059,1.05543 -0.6059,0.91863 -1.56362,1.79815 -0.7818,0.66453 -0.95771,0.82091 -0.70363,0.27363 -0.91862,0.37136 -0.8209,0.37135 -0.76226,0.29318 -0.87953,0.215 -1.03589,0.23454 -1.6418,0.0391 -1.52452,-0.0586 -1.36816,-0.33226 -1.07499,-0.17591 -0.46908,-0.0586 -0.87953,-0.33227 -0.89908,-0.3909 c 0,0 -0.76226,-0.33227 -0.95771,-0.44954 -0.19545,-0.11727 -0.91863,-0.6059 -0.91863,-0.6059 0,0 -0.70362,-0.68408 -0.74271,-0.76226 -0.0391,-0.0782 -0.91862,-1.19226 -0.91862,-1.19226 l -0.44954,-0.91862 -0.56681,-1.36816 -0.46908,-0.9968 -0.35182,-1.05544 -0.3909,-0.9968 -0.27363,-1.0359 c 0,0 -0.13682,-0.87953 -0.17591,-0.97726 -0.0391,-0.0977 -0.1759,-0.74271 -0.1759,-0.74271 l -0.11727,-0.80135 -0.0977,-0.87953"
             style="fill:none;stroke:#000000;stroke-width:0.19040239;stroke-linecap:butt;stroke-linejoin:miter;stroke-miterlimit:4;stroke-dasharray:none;stroke-opacity:1" />
          <path
             inkscape:connector-curvature="0"
             id="path5172"
             d="m 59.326747,223.7448 0.0586,0.64499 0.13682,1.0359 0.215,0.7818 0.19545,0.85999 0.29317,0.87953 0.48863,1.07499 0.37136,0.64498 0.35181,0.52772 0.50818,0.56681 0.35181,0.54727 0.37136,0.46909 0.85998,0.7818 0.66454,0.3909 0.39091,0.17591 0.74271,0.37136 1.01635,0.29317 1.01635,0.19545 1.46588,0.0782 1.15317,-0.19545 0.8209,-0.23455 0.60589,-0.35181 0.62545,-0.29318 1.07498,-0.87953 0.6059,-0.50818 0.62545,-0.64498 0.41045,-0.6059 0.42999,-0.60591 0.31272,-0.76225 0.215,-0.87954 0.215,-0.64499 0.21499,-1.05544 0.15636,-0.93816 0.0977,-0.72317 0.21499,-1.13363 0.0977,-0.87953 0.11727,-0.89907 0.0391,-1.01635 0.25409,-2.2086 0.11727,-1.4268 0.0782,-1.23134 0.15636,-1.23135 0.0977,-2.14997 0.0195,-1.62224 0.0782,-2.8536 -0.0586,-2.01315 -0.0195,-3.57676 -0.0391,-1.66134 -0.13682,-3.08814 -0.0782,-4.74947 0.0195,-4.39766 0.0586,-1.17271 0.0391,-0.215"
             style="fill:none;stroke:#000000;stroke-width:0.19040239;stroke-linecap:butt;stroke-linejoin:miter;stroke-miterlimit:4;stroke-dasharray:none;stroke-opacity:1" />
          <path
             inkscape:connector-curvature="0"
             id="path5174"
             d="m 77.484197,185.16266 -0.0195,-0.93817 0.0391,-0.89907 -0.15636,-1.19226 -0.11727,-1.01634 -0.13681,-1.2509 -0.27364,-1.85678 -0.11727,-1.21181 -0.15636,-1.01634 -0.27363,-1.09453 -0.44954,-1.83725 -0.43,-1.54406 -0.1759,-1.07499 -0.62545,-2.28678 -0.42999,-1.83725 -0.46908,-1.25089 -0.85999,-2.57996 -0.70363,-1.58315 -0.64499,-1.27044 -0.6059,-1.2118 -0.54726,-0.91862 -0.70362,-0.85999 -0.50818,-0.62544 -0.54727,-0.56681 -0.5668,-0.68408 -0.66454,-0.52772 -0.68408,-0.58636 -0.80136,-0.54726 -0.9577,-0.66454 -0.70363,-0.35181 c 0,0 -1.11407,-0.54726 -1.19225,-0.54726 -0.0782,0 -0.85999,-0.33227 -0.85999,-0.33227 l -1.0359,-0.33227 -1.19225,-0.37136 -0.9968,-0.0586 -1.2118,-0.25409 -0.91863,-0.0977 -2.07178,-0.35181 -0.87953,-0.0782 -1.99361,0.0196 -2.07179,-0.0782 -1.19225,0.0782 -1.19225,0.15636 h -0.95772 l -1.13362,0.13681 -0.93816,0.17591 -1.28998,0.17591 -1.34862,0.41045 -1.75906,0.58635 -1.8568,0.93817 -1.13361,0.58635 -0.6059,0.48863 -1.40725,1.05544 -0.80136,0.72317 -0.9968,0.95771 -1.01635,1.09453 -0.7818,0.97726 -0.78181,0.85999 -0.72317,1.07498 -0.72317,0.9968 -0.56681,0.95772 -1.05544,1.87633 -0.72317,1.50498 -0.50817,1.32907 -0.41045,1.3877 -0.39091,1.09453 -0.42999,2.14997 -0.37136,1.68088 -0.25409,1.44634 -0.31272,1.8177 -0.19545,2.0327 -0.25409,1.46589 -0.0195,2.34542 0.35181,2.87314 0.0977,1.95451 0.13681,1.93497 0.31273,1.97406 0.11727,1.34862 0.13681,1.28998 0.29318,1.17271 0.19545,1.36816 0.11727,1.13362 0.19545,1.46588 0.11727,0.8209 0.25409,0.68408 0.33227,1.52452 0.56681,2.40406 0.29318,1.83724 0.44954,1.54407 0.33226,1.27044 0.39091,2.01314 0.41044,1.66135 0.37136,1.64179 0.37136,1.30953 0.50817,1.87633 0.44954,1.77861 0.41045,1.50498 0.84044,3.14677 0.54727,1.93497 0.35181,1.44634 0.54726,1.70043 0.46909,1.05543 0.44954,0.74272 0.37136,0.58636 0.41044,0.54726 0.56681,0.62545 0.44954,0.54726 0.50818,0.48863 0.42999,0.48863 0.91862,0.6059 0.64499,0.44954 0.8209,0.21499 0.72317,0.0977 0.68408,-0.0391 0.54726,-0.0586 0.70363,-0.11726 0.52772,-0.27364 0.58635,-0.31272 0.66454,-0.37136 0.37136,-0.3909 0.42999,-0.58636 0.23454,-0.42999 0.23454,-0.80135 v -0.66454 l 0.0196,-0.68408 -0.0391,-0.9968 -0.0586,-0.70363 -0.23455,-0.74271 -0.35181,-0.78181 -0.29318,-0.68408 -0.31272,-0.66453 -0.29318,-0.85999 -0.42999,-0.89908 -0.33227,-0.87954 -0.29318,-1.09452"
             style="fill:none;stroke:#000000;stroke-width:0.19040239;stroke-linecap:butt;stroke-linejoin:miter;stroke-miterlimit:4;stroke-dasharray:none;stroke-opacity:1" />
          <path
             inkscape:connector-curvature="0"
             id="path5176"
             d="m 38.687057,224.60479 -0.41045,-0.3909"
             style="fill:none;stroke:#000000;stroke-width:0.19040239;stroke-linecap:butt;stroke-linejoin:miter;stroke-miterlimit:4;stroke-dasharray:none;stroke-opacity:1" />
          <path
             inkscape:connector-curvature="0"
             id="path5178"
             d="m 39.077967,224.11616 -0.41045,-0.41045"
             style="fill:none;stroke:#000000;stroke-width:0.19040239;stroke-linecap:butt;stroke-linejoin:miter;stroke-miterlimit:4;stroke-dasharray:none;stroke-opacity:1" />
          <path
             inkscape:connector-curvature="0"
             id="path5180"
             d="m 60.304007,223.70571 -0.97726,0.0391 -1.30953,-0.0977 -0.91862,-0.0195 -0.9968,0.0586 -0.46908,0.11727 -1.0359,0.25409 -0.95771,0.0586 -0.6059,0.13682"
             style="fill:none;stroke:#000000;stroke-width:0.19040239;stroke-linecap:butt;stroke-linejoin:miter;stroke-miterlimit:4;stroke-dasharray:none;stroke-opacity:1" />
          <path
             inkscape:connector-curvature="0"
             id="path5182"
             d="m 55.847717,225.48432 -1.60271,0.23455 -0.66454,0.13681 h -0.54726"
             style="fill:none;stroke:#000000;stroke-width:0.19040239;stroke-linecap:butt;stroke-linejoin:miter;stroke-miterlimit:4;stroke-dasharray:none;stroke-opacity:1" />
          <path
             inkscape:connector-curvature="0"
             id="path5184"
             d="m 51.977767,222.80663 0.42999,0.54727 0.37136,0.48863 0.25409,0.41044 0.11727,0.46909 0.0195,0.6059 -0.13681,0.52772 -0.23455,0.46908 c 0,0 -0.25409,0.215 -0.33226,0.23455 -0.0782,0.0195 -0.52772,0.0782 -0.52772,0.0782 l -0.50818,-0.0391 -0.29317,-0.31273 -0.27364,-0.31272 -0.11727,-0.29318 -0.0195,-0.66453 -0.0586,-0.76226 0.0782,-0.37136 -0.13682,-0.48863 -0.37135,-0.31273 -0.46909,-0.15635 -0.33226,-0.13682 -0.31273,-0.0195"
             style="fill:none;stroke:#000000;stroke-width:0.19040239;stroke-linecap:butt;stroke-linejoin:miter;stroke-miterlimit:4;stroke-dasharray:none;stroke-opacity:1" />
          <path
             inkscape:connector-curvature="0"
             id="path5186"
             d="m 50.668237,224.25298 -0.76226,-0.0391 -0.62544,-0.0782 -0.6059,-0.17591 c 0,0 -0.13682,-0.21499 -0.35182,-0.31272 -0.21499,-0.0977 -0.62544,-0.43 -0.62544,-0.43 l -0.33227,-0.41044 -0.25408,-0.25409 -0.11728,-0.3909 -0.19545,-0.46908 -0.0586,-0.48863 -0.0391,-0.74272 v -0.11727"
             style="fill:none;stroke:#000000;stroke-width:0.19040239;stroke-linecap:butt;stroke-linejoin:miter;stroke-miterlimit:4;stroke-dasharray:none;stroke-opacity:1" />
          <path
             inkscape:connector-curvature="0"
             id="path5188"
             d="m 53.306837,222.37664 0.58636,0.0782 0.74271,0.0391 h 0.89908 l 0.72317,0.0391 0.74272,-0.13682 0.66453,-0.11727 0.52772,-0.17591 0.50818,-0.19545 0.0195,-0.35181 -0.0782,-0.33227 -0.17591,-0.31272 c 0,0 -0.15636,-0.23454 -0.27363,-0.25409 -0.11727,-0.0195 -0.6059,-0.15636 -0.6059,-0.15636 l -0.66454,0.17591 c 0,0 -0.44953,0.11726 -0.58635,0.1759 -0.13681,0.0586 -0.66454,0.215 -0.7818,0.27363 -0.11728,0.0586 -0.70363,0.25409 -0.78181,0.29318 -0.0782,0.0391 -0.39091,0.15636 -0.39091,0.15636 l -0.44953,0.25409 -0.41045,0.33227 z"
             style="fill:none;stroke:#000000;stroke-width:0.19040239;stroke-linecap:butt;stroke-linejoin:miter;stroke-miterlimit:4;stroke-dasharray:none;stroke-opacity:1" />
          <path
             inkscape:connector-curvature="0"
             id="path5190"
             d="m 47.365107,219.75759 0.44954,0.72317 0.35182,0.46908 0.21499,0.31273 0.50817,0.33226 0.41045,0.23455 0.56681,0.0977 0.50818,0.11728 0.56681,0.0391 0.46908,-0.11727 0.50817,-0.25409 0.35181,-0.27363 c 0,0 0.29319,-0.13681 0.39091,-0.1759 0.0977,-0.0391 0.52772,-0.27364 0.52772,-0.27364 l 0.72317,-0.35181 0.52772,-0.33227 0.70363,-0.19545 0.74271,-0.29318 c 0,0 0.29318,-0.0782 0.41045,-0.0782 0.11727,0 1.01635,-0.0977 1.01635,-0.0977 h 0.62544 l 0.8209,0.0782 0.9968,0.13681 0.42999,0.46909 0.0977,0.29317 0.11727,0.15637 0.11727,0.0782 0.23454,0.0391 0.54727,-0.0195 c 0,0 0.31272,0.0586 0.6059,-0.0586 0.29318,-0.11727 0.80135,-0.21499 0.80135,-0.21499 l 0.50818,-0.0782 c 0,0 0.3518,-0.13682 0.44953,-0.15637 0.0977,-0.0195 0.44954,-0.13681 0.62545,-0.15636 0.1759,-0.0195 0.42999,-0.0195 0.52772,-0.0586 0.0977,-0.0391 0.23454,-0.13681 0.23454,-0.13681"
             style="fill:none;stroke:#000000;stroke-width:0.19040239;stroke-linecap:butt;stroke-linejoin:miter;stroke-miterlimit:4;stroke-dasharray:none;stroke-opacity:1" />
          <path
             inkscape:connector-curvature="0"
             id="path5192"
             d="m 59.756737,219.85531 0.66454,-0.21499 1.15316,-0.0782 c 0,0 0.52772,-0.13682 0.62545,-0.13682 0.0977,0 0.41045,-0.0195 0.41045,-0.0195"
             style="fill:none;stroke:#000000;stroke-width:0.19040239;stroke-linecap:butt;stroke-linejoin:miter;stroke-miterlimit:4;stroke-dasharray:none;stroke-opacity:1" />
          <path
             inkscape:connector-curvature="0"
             id="path5194"
             d="m 64.584397,218.76079 h 0.52772 l 0.58635,0.0391 0.48863,0.17591 c 0,0 0.52772,0.23454 0.56681,0.33227 0.0391,0.0977 0.37135,0.41045 0.37135,0.41045 l 0.33227,0.42999 0.0977,0.42999 0.0586,0.50818 c 0,0 0.0391,0.44954 0.0391,0.62544 0,0.17591 -0.0977,0.68408 -0.0977,0.68408 0,0 -0.0977,0.35182 -0.13681,0.46909 -0.0391,0.11727 -0.215,0.33226 -0.33227,0.44954 -0.11727,0.11727 -0.31272,0.29317 -0.3909,0.33226 -0.0782,0.0391 -0.31273,0.0977 -0.46909,0.15637 -0.15636,0.0586 -0.3909,0.0782 -0.58635,0.0782 -0.19545,0 -0.25409,-0.0195 -0.41045,-0.0391 -0.15636,-0.0195 -0.44954,-0.11727 -0.44954,-0.11727 l -0.3909,-0.17591 -0.19545,-0.19545"
             style="fill:none;stroke:#000000;stroke-width:0.19040239;stroke-linecap:butt;stroke-linejoin:miter;stroke-miterlimit:4;stroke-dasharray:none;stroke-opacity:1" />
          <path
             inkscape:connector-curvature="0"
             id="path5196"
             d="m 59.522197,225.42569 0.76226,-0.37136 0.97726,-0.39091 0.99681,-0.3909 1.21179,-0.58635 0.72317,-0.33227 1.0359,-0.54727 0.37136,-0.1759 0.74271,-0.35182 0.11727,-0.33226 -0.0586,-0.54727 -0.0195,-0.35181 -0.11727,-0.1759 -0.19545,-0.27364 -0.27364,-0.19545 -0.35181,-0.27363 -0.39091,-0.11728"
             style="fill:none;stroke:#000000;stroke-width:0.19040239;stroke-linecap:butt;stroke-linejoin:miter;stroke-miterlimit:4;stroke-dasharray:none;stroke-opacity:1" />
          <path
             inkscape:connector-curvature="0"
             id="path5198"
             d="m 62.414877,236.76188 -0.41044,0.54727 -0.62545,0.48862 -0.35181,0.33227 -0.58636,0.3909 -0.74272,0.19545 -0.54726,0.15636 h -0.58635 l -0.62545,0.0391 -0.68408,0.0195 -0.42999,0.0195"
             style="fill:none;stroke:#000000;stroke-width:0.19040239;stroke-linecap:butt;stroke-linejoin:miter;stroke-miterlimit:4;stroke-dasharray:none;stroke-opacity:1" />
          <path
             inkscape:connector-curvature="0"
             id="path5200"
             d="m 61.027177,235.99962 -0.41045,0.41045 -0.66454,0.44953 c 0,0 -0.29318,0.215 -0.46908,0.27363 -0.17591,0.0586 -0.91862,0.39091 -0.91862,0.39091 l -0.78181,-0.0391 c 0,0 -0.33227,0 -0.41045,0 -0.0782,0 -0.6059,-0.0391 -0.6059,-0.0391 l -0.76226,-0.0782 -0.50817,0.41044 -0.35181,0.99681 -0.37136,0.35181 c 0,0 -0.27364,0.0391 -0.41045,0.0782 -0.13682,0.0391 -0.6059,-0.0391 -0.6059,-0.0391 l -0.41045,-0.35182 -0.29318,-0.27363 -0.0782,-0.44954 c 0,0 -0.0391,-0.215 -0.0391,-0.35181 0,-0.13682 0.0586,-1.15317 0.0586,-1.15317 l 0.0782,-0.76225 v -1.05544 -0.80136 l -0.23454,-0.84044 -0.29318,-0.85998 -0.64498,-0.91863 -0.76227,-0.95771 -1.71997,-2.48224 -1.28998,-2.2086 -1.73952,-2.89268 -0.66454,-1.70043"
             style="fill:none;stroke:#000000;stroke-width:0.19040239;stroke-linecap:butt;stroke-linejoin:miter;stroke-miterlimit:4;stroke-dasharray:none;stroke-opacity:1" />
          <path
             inkscape:connector-curvature="0"
             id="path5202"
             d="m 48.967817,215.41857 c -0.0391,0.13681 -0.0977,1.23134 -0.0977,1.23134 l -0.35181,1.05544 c 0,0 -0.33227,0.8209 -0.39091,0.93817 -0.0586,0.11727 -0.76226,1.11407 -0.76226,1.11407 l -0.66453,0.58636 -0.62545,0.46908 -0.35181,0.29319 -0.85999,0.44953 -0.93817,0.27363 -0.72317,0.15636 h -0.93816 l -0.68408,-0.23454 c 0,0 -0.62545,-0.0782 -0.72317,-0.0782 -0.0977,0 -0.68409,-0.11727 -0.68409,-0.11727 l -0.64499,-0.19546 -0.56681,-0.11727 c 0,0 -0.46908,-0.0195 -0.64499,-0.0195 -0.1759,0 -0.54726,0.0586 -0.54726,0.0586 l -0.17591,0.23455 -0.13681,0.48862 c 0,0 -0.0196,0.0586 0.0391,0.17591 0.0586,0.11727 0.0586,0.19545 0.23454,0.19545 0.1759,0 0.50817,0 0.50817,0 0,0 0.13682,-0.11727 0.46909,0.0782 0.33226,0.19545 0.74271,0.52772 0.74271,0.52772 l 0.31273,0.44954 0.23454,0.29317 0.41045,0.54727 0.25408,0.44954 0.13682,0.54726 c 0,0 0.0782,0.33227 0,0.41045 -0.0782,0.0782 -0.0782,0.0977 -0.3909,0.17591 -0.31273,0.0782 -0.215,0.13681 -0.6059,0.0977 -0.39091,-0.0391 -0.70363,-0.13681 -0.99681,-0.19545 -0.29317,-0.0586 -0.21499,-0.0977 -0.46908,-0.13682 -0.25409,-0.0391 -0.41045,-0.13681 -0.64499,-0.23453 -0.23454,-0.0977 -0.41045,-0.19546 -0.52772,-0.27364 -0.11727,-0.0782 -0.52772,-0.48863 -0.52772,-0.48863 l -0.15636,-0.42999 -0.0586,-0.41045 c 0,0 -0.0782,-0.27363 0.0782,-0.27363 0.15637,0 0.31273,0 0.39091,0.0391 0.0782,0.0391 0.23454,0.13681 0.23454,0.13681"
             style="fill:none;stroke:#000000;stroke-width:0.19040239;stroke-linecap:butt;stroke-linejoin:miter;stroke-miterlimit:4;stroke-dasharray:none;stroke-opacity:1" />
          <path
             inkscape:connector-curvature="0"
             id="path5204"
             d="m 37.807527,222.90436 -0.11727,-0.44954"
             style="fill:none;stroke:#000000;stroke-width:0.19040239;stroke-linecap:butt;stroke-linejoin:miter;stroke-miterlimit:4;stroke-dasharray:none;stroke-opacity:1" />
          <path
             inkscape:connector-curvature="0"
             id="path5206"
             d="m 36.791177,223.33435 -0.54726,-0.48862 -0.25409,-0.27363 -0.0586,-0.25409 -0.15636,-0.54726 v -0.31273 c 0,0 0.0196,-0.17591 0.0782,-0.35182 0.0586,-0.1759 -0.0195,-0.25408 0.13682,-0.39089 0.15636,-0.13683 0.215,-0.25409 0.33227,-0.35182 0.11727,-0.0977 0.1759,-0.215 0.33227,-0.31272 0.15636,-0.0977 0.35181,-0.215 0.44954,-0.25409 0.0977,-0.0391 0.23454,-0.0977 0.41044,-0.11727 0.17591,-0.0195 0.39091,-0.0586 0.48863,-0.0782 0.0977,-0.0195 0.70363,-0.0782 0.85999,-0.0782 0.15636,0 0.56681,0.0391 0.56681,0.0391 l 0.72317,0.1759 c 0,0 0.76226,0.0977 0.87953,0.0977 0.11727,0 0.48863,0.0977 0.66454,0.0977 0.1759,0 0.25408,0.0195 0.62544,0 0.37136,-0.0195 0.27363,0 0.6059,-0.0391 0.33227,-0.0391 0.37136,-0.0195 0.58636,-0.0782 0.21499,-0.0586 0.33226,-0.11728 0.58635,-0.19545 0.25409,-0.0782 0.19545,-0.0782 0.44954,-0.17591 0.25409,-0.0977 0.42999,-0.15636 0.52772,-0.23455 0.0977,-0.0782 0.25409,-0.29317 0.33227,-0.35181 0.0782,-0.0586 0.50817,-0.41044 0.50817,-0.41044 l 0.27363,-0.43 c 0,0 0.15636,-0.21499 0.27364,-0.37135 0.11727,-0.15637 0.29317,-0.44955 0.35181,-0.6059 0.0586,-0.15637 0.15636,-0.52772 0.15636,-0.52772 l 0.0195,-0.23455"
             style="fill:none;stroke:#000000;stroke-width:0.19040239;stroke-linecap:butt;stroke-linejoin:miter;stroke-miterlimit:4;stroke-dasharray:none;stroke-opacity:1" />
          <path
             inkscape:connector-curvature="0"
             id="path5208"
             d="m 54.440457,220.30485 -0.0586,-2.01315 c 0,0 -0.0586,-0.97725 -0.0586,-1.11407 0,-0.13681 -0.0391,-1.2118 -0.0391,-1.2118 l 0.0391,-1.54407 -0.215,-1.89588 -0.0782,-1.58315"
             style="fill:none;stroke:#000000;stroke-width:0.19040239;stroke-linecap:butt;stroke-linejoin:miter;stroke-miterlimit:4;stroke-dasharray:none;stroke-opacity:1" />
          <path
             inkscape:connector-curvature="0"
             id="path5210"
             d="m 58.254227,219.5851 -0.11855,-1.60046 -0.34083,-2.63777 -0.45939,-3.92704 -0.20747,-1.68936 -0.0741,-0.53348"
             style="fill:none;stroke:#000000;stroke-width:0.19040239;stroke-linecap:butt;stroke-linejoin:miter;stroke-miterlimit:4;stroke-dasharray:none;stroke-opacity:1" />
          <path
             inkscape:connector-curvature="0"
             id="path5212"
             d="m 52.000617,212.66463 -0.82986,0.96323 -0.6224,0.54831 -0.69649,0.62239 -0.88405,0.62001 -0.95351,0.35805 -1.02056,0.50193 c 0,0 -0.55025,0.17974 -0.65398,0.25384 -0.10374,0.0741 -0.74095,0.20746 -0.80023,0.25192 -0.0593,0.0445 -0.65203,0.11855 -0.65203,0.11855"
             style="fill:none;stroke:#000000;stroke-width:0.19040239;stroke-linecap:butt;stroke-linejoin:miter;stroke-miterlimit:4;stroke-dasharray:none;stroke-opacity:1" />
          <path
             inkscape:connector-curvature="0"
             id="path5214"
             d="m 44.813407,214.93193 0.59276,-0.10373 0.53349,-0.25192 0.60757,-0.16301 c 0,0 0.57794,-0.26674 0.66686,-0.3112 0.0889,-0.0445 0.71131,-0.41493 0.71131,-0.41493 l 0.6224,-0.42975 c 0,0 0.34083,-0.32602 0.40011,-0.38529 0.0593,-0.0593 0.53348,-0.56313 0.53348,-0.56313 l 0.60758,-0.51866 0.37048,-0.44457"
             style="fill:none;stroke:#000000;stroke-width:0.19040239;stroke-linecap:butt;stroke-linejoin:miter;stroke-miterlimit:4;stroke-dasharray:none;stroke-opacity:1" />
          <path
             inkscape:connector-curvature="0"
             id="path5216"
             d="m 54.164197,213.55377 -0.3853,-0.0593 -0.48902,-0.11855 -0.77059,-0.35565 c 0,0 -0.51867,-0.35566 -0.51867,-0.35566 l -0.40011,-0.28156 -0.56312,-0.48903 -0.57794,-0.5483 -0.47421,-0.42975 -0.65204,-0.6965 -0.66685,-1.11142 -0.34084,-0.68167 -0.37047,-0.69649"
             style="fill:none;stroke:#000000;stroke-width:0.19040239;stroke-linecap:butt;stroke-linejoin:miter;stroke-miterlimit:4;stroke-dasharray:none;stroke-opacity:1" />
          <path
             inkscape:connector-curvature="0"
             id="path5218"
             d="m 53.971727,211.20964 -0.48881,-0.34217 -1.13405,-0.62568 -0.69411,-0.64523 -0.69411,-0.81143 -0.59635,-1.14381 -0.32261,-0.67456 -0.14665,-0.66478"
             style="fill:none;stroke:#000000;stroke-width:0.19040239;stroke-linecap:butt;stroke-linejoin:miter;stroke-miterlimit:4;stroke-dasharray:none;stroke-opacity:1" />
          <path
             inkscape:connector-curvature="0"
             id="path5220"
             d="m 48.251017,213.38903 -0.13826,-0.30417 -0.23504,-0.48391 -0.60834,-0.49772 -0.60833,-0.45625 c 0,0 -0.4286,-0.35947 -0.56685,-0.44243 -0.13826,-0.083 -0.33183,-0.24886 -0.55304,-0.24886 -0.22121,0 -0.81572,-0.24887 -0.81572,-0.24887 0,0 -0.45625,-0.13825 -0.59451,-0.13825 -0.13826,0 -0.71894,-0.0968 -0.81572,-0.0968 -0.0968,0 -0.71894,-0.0553 -0.78807,-0.0553 -0.0691,0 -0.55303,-0.0277 -0.67746,0 -0.12443,0.0277 -0.52538,0.0691 -0.64981,0.11061 -0.12443,0.0415 -0.78807,0.34564 -0.78807,0.34564 l -0.47008,0.24886 -0.47008,0.38713 -0.20738,0.29034 -0.24887,0.40095 -0.0968,0.64981 c 0,0 -0.0415,0.52538 -0.0553,0.60833 -0.0138,0.0829 0.0138,0.44243 0.0138,0.53921 0,0.0968 0.0277,0.4286 0.0277,0.4286 0,0 0.19356,0.41477 0.23504,0.49773 0.0415,0.0829 0.22121,0.33182 0.27651,0.44242 0.0553,0.11061 0.23504,0.41477 0.29034,0.51155 0.0553,0.0968 0.51156,0.41478 0.51156,0.41478 0,0 0.26269,0.15208 0.31799,0.17973 0.0553,0.0277 0.63599,0.34565 0.63599,0.34565"
             style="fill:none;stroke:#000000;stroke-width:0.19040239;stroke-linecap:butt;stroke-linejoin:miter;stroke-miterlimit:4;stroke-dasharray:none;stroke-opacity:1" />
          <path
             inkscape:connector-curvature="0"
             id="path5222"
             d="m 41.130737,214.93751 -0.16591,-0.26269 -0.29034,-1.03693 c 0,0 0,-0.16591 0.0276,-0.27652 0.0276,-0.1106 0.23504,-0.71894 0.23504,-0.71894 0,0 0.11061,-0.15208 0.26269,-0.17973 0.15208,-0.0277 0.34564,-0.0968 0.52538,-0.15209 0.17973,-0.0553 0.34564,-0.12443 0.56686,-0.12443 0.22121,0 0.76041,0.0277 0.76041,0.0277 l 0.78807,0.13826 0.87103,0.27651 c 0,0 0.23504,0.13826 0.33181,0.24886 0.0968,0.11061 0.59451,0.53921 0.59451,0.53921 l 0.24887,0.30417 0.66042,0.69242"
             style="fill:none;stroke:#000000;stroke-width:0.19040239;stroke-linecap:butt;stroke-linejoin:miter;stroke-miterlimit:4;stroke-dasharray:none;stroke-opacity:1" />
          <path
             inkscape:connector-curvature="0"
             id="path5224"
             d="m 45.071087,212.87747 c -0.0277,0.13826 -0.12444,0.81572 -0.12444,0.81572 l -0.16591,0.70512 0.0327,0.53362 -0.0741,1.04252 0.14824,0.92841 0.073,0.99337 0.19356,1.13371"
             style="fill:none;stroke:#000000;stroke-width:0.19040239;stroke-linecap:butt;stroke-linejoin:miter;stroke-miterlimit:4;stroke-dasharray:none;stroke-opacity:1" />
          <path
             inkscape:connector-curvature="0"
             id="path5226"
             d="m 41.213687,212.49035 c 0,0 -0.083,2.44716 -0.083,2.44716 l 0.0415,1.88031 0.22122,3.05549"
             style="fill:none;stroke:#000000;stroke-width:0.19040239;stroke-linecap:butt;stroke-linejoin:miter;stroke-miterlimit:4;stroke-dasharray:none;stroke-opacity:1" />
          <path
             inkscape:connector-curvature="0"
             id="path5228"
             d="m 45.872977,210.99716 0.22122,-0.56685 0.30416,-0.66364 c 0,0 0.12444,-0.31799 0.22121,-0.44243 0.0968,-0.12443 0.48391,-0.63598 0.48391,-0.63598 l 0.4839,-0.60833 0.36766,-0.35002 0.83518,-0.68692 0.59451,-0.52538 0.51031,-0.21563 0.59575,-0.36505 0.52538,-0.23504 0.67747,-0.35947 0.67746,-0.23504 0.64981,-0.30417"
             style="fill:none;stroke:#000000;stroke-width:0.19040239;stroke-linecap:butt;stroke-linejoin:miter;stroke-miterlimit:4;stroke-dasharray:none;stroke-opacity:1" />
          <path
             inkscape:connector-curvature="0"
             id="path5230"
             d="m 52.509357,201.12555 -0.95398,0.22122 -1.00928,0.35947 -1.13372,0.38712 -1.0231,0.52538 -0.76043,0.34565 -0.89867,0.38712 -0.70511,0.49772 -0.73277,0.63599 -0.66364,0.67746 -0.76042,0.94016 c 0,0 -0.56685,0.74659 -0.5945,0.81572 -0.0277,0.0691 -0.60834,0.9678 -0.60834,0.9678 0,0 -0.56686,1.2858 -0.62216,1.36875 -0.0553,0.083 -0.3733,0.95398 -0.3733,0.95398 l -0.0415,0.23504"
             style="fill:none;stroke:#000000;stroke-width:0.19040239;stroke-linecap:butt;stroke-linejoin:miter;stroke-miterlimit:4;stroke-dasharray:none;stroke-opacity:1" />
          <path
             inkscape:connector-curvature="0"
             id="path5232"
             d="m 54.030007,210.94273 0.63617,-0.51242 c 0,0 0.49772,-0.20739 0.63599,-0.318 0.13825,-0.1106 0.92632,-0.47007 0.92632,-0.47007 0,0 0.8254,-0.44525 0.8254,-0.44525 l 0.44657,-0.13543 c 0,0 0.62216,-0.30417 0.66364,-0.35947 0.0415,-0.0553 0.44242,-0.35947 0.44242,-0.35947 l 0.77425,-0.48391 0.49773,-0.37329 0.4286,-0.52538 0.5945,-0.71895 0.47008,-0.58068 0.49773,-0.76041 0.27651,-0.76042"
             style="fill:none;stroke:#000000;stroke-width:0.19040239;stroke-linecap:butt;stroke-linejoin:miter;stroke-miterlimit:4;stroke-dasharray:none;stroke-opacity:1" />
          <path
             inkscape:connector-curvature="0"
             id="path5234"
             d="m 52.025447,209.80815 0.29034,-0.22122 0.62216,-0.4286 c 0,0 0.29035,-0.33182 0.51156,-0.38712 0.22121,-0.0553 0.60833,-0.19356 0.76042,-0.26268 0.15208,-0.0691 0.5392,-0.29034 0.63598,-0.318 0.0968,-0.0277 0.71895,-0.33182 0.8019,-0.3733 0.083,-0.0415 0.64981,-0.4286 0.64981,-0.4286 l 0.74659,-0.40094 c 0,0 0.53921,-0.4286 0.59451,-0.45625 0.0553,-0.0277 0.55303,-0.35947 0.62216,-0.47008 0.0691,-0.11061 0.3733,-0.59451 0.3733,-0.59451 l 0.34564,-0.51155 0.31799,-0.58069 0.16591,-0.80189"
             style="fill:none;stroke:#000000;stroke-width:0.19040239;stroke-linecap:butt;stroke-linejoin:miter;stroke-miterlimit:4;stroke-dasharray:none;stroke-opacity:1" />
          <path
             inkscape:connector-curvature="0"
             id="path5236"
             d="m 53.477157,208.68826 c 0,0 -0.0138,-0.60833 -0.0138,-0.69129 0,-0.0829 -0.083,-1.02311 -0.083,-1.02311 0,0 -0.0691,-0.81572 -0.0691,-0.87102 0,-0.0553 -0.29034,-1.29963 -0.29034,-1.29963 l -0.23503,-1.52083 -0.16592,-1.42406 -0.1106,-0.73277 -0.23504,-1.38257 -0.13826,-0.88485"
             style="fill:none;stroke:#000000;stroke-width:0.19040239;stroke-linecap:butt;stroke-linejoin:miter;stroke-miterlimit:4;stroke-dasharray:none;stroke-opacity:1" />
          <path
             inkscape:connector-curvature="0"
             id="path5238"
             d="m 56.643257,207.16742 -0.31799,-1.32727 c 0,0 -0.27652,-1.00928 -0.29034,-1.07841 -0.0138,-0.0691 -0.0829,-0.87102 -0.0829,-0.87102 0,0 -0.17974,-0.77425 -0.17974,-0.87103 0,-0.0968 -0.30417,-1.53466 -0.30417,-1.58997 0,-0.0553 -0.30417,-1.54848 -0.30417,-1.54848 l -0.47007,-2.06005"
             style="fill:none;stroke:#000000;stroke-width:0.19040239;stroke-linecap:butt;stroke-linejoin:miter;stroke-miterlimit:4;stroke-dasharray:none;stroke-opacity:1" />
          <path
             inkscape:connector-curvature="0"
             id="path5240"
             d="m 55.951977,203.89072 0.34564,-0.26269 c 0,0 0.35947,-0.0553 0.44242,-0.0553 0.083,0 0.69129,-0.1106 0.69129,-0.1106 h 0.56686 l 0.73277,-0.0277 0.73276,0.13826 0.71894,0.0415 1.21667,0.38712 0.74659,0.13826 0.8572,0.44242 0.98164,0.40095 0.82954,0.52538 0.60834,0.51155 0.30416,0.26269"
             style="fill:none;stroke:#000000;stroke-width:0.19040239;stroke-linecap:butt;stroke-linejoin:miter;stroke-miterlimit:4;stroke-dasharray:none;stroke-opacity:1" />
          <path
             inkscape:connector-curvature="0"
             id="path5242"
             d="m 68.948207,204.54052 -1.10606,-0.81572 -0.92633,-0.70511 -1.20284,-0.76042 -1.36876,-0.74659 -1.16136,-0.58068 -1.17519,-0.53921 c 0,0 -0.87103,-0.12443 -0.95398,-0.12443 -0.083,0 -1.18902,-0.19356 -1.18902,-0.19356 0,0 -0.76042,-0.0277 -0.87102,-0.0277 -0.11061,0 -1.31345,-0.0138 -1.31345,-0.0138 0,0 -0.47008,-0.0138 -0.62216,0.0138 -0.15209,0.0277 -0.94016,0.1659 -0.94016,0.1659 l -0.66364,0.11061 -0.19356,0.0138"
             style="fill:none;stroke:#000000;stroke-width:0.19040239;stroke-linecap:butt;stroke-linejoin:miter;stroke-miterlimit:4;stroke-dasharray:none;stroke-opacity:1" />
          <path
             inkscape:connector-curvature="0"
             id="path5244"
             d="m 57.514287,212.58713 0.77424,0.17973 0.76042,0.0968 0.55303,0.0968 c 0,0 0.82955,0.083 0.88485,0.083 0.0553,0 1.46553,0.17973 1.46553,0.17973 0,0 0.94016,0.0691 1.03694,0.0691 0.0968,0 1.02311,0.0277 1.09223,0.0415 0.0691,0.0138 1.10607,0.083 1.1752,0.083 0.0691,0 0.63598,0 0.95397,-0.0553 0.318,-0.0553 0.73277,-0.16591 0.99546,-0.24887 0.26269,-0.083 0.67747,-0.24886 0.84337,-0.26268 0.16591,-0.0138 0.52538,-0.22122 0.52538,-0.22122"
             style="fill:none;stroke:#000000;stroke-width:0.19040239;stroke-linecap:butt;stroke-linejoin:miter;stroke-miterlimit:4;stroke-dasharray:none;stroke-opacity:1" />
          <path
             inkscape:connector-curvature="0"
             id="path5246"
             d="m 68.201617,214.64717 -0.58069,0.318 c 0,0 -0.69129,0.0691 -0.81572,0.13825 -0.12443,0.0691 -0.67746,0.15209 -0.67746,0.15209 l -0.81572,0.0553 c 0,0 -0.64982,0.0138 -0.70512,0.0277 -0.0553,0.0138 -0.78806,0.0553 -0.89867,0.0553 -0.11061,0 -0.78807,-0.0553 -0.78807,-0.0553 l -0.8019,0.0968 -0.87102,-0.0968 -0.71894,-0.0553 c 0,0 -0.71894,-0.0553 -0.8019,-0.0553 -0.083,0 -0.80189,-0.0968 -0.80189,-0.0968 l -0.64981,-0.0553 -0.53921,-0.0968"
             style="fill:none;stroke:#000000;stroke-width:0.19040239;stroke-linecap:butt;stroke-linejoin:miter;stroke-miterlimit:4;stroke-dasharray:none;stroke-opacity:1" />
          <path
             inkscape:connector-curvature="0"
             id="path5248"
             d="m 64.593087,220.0807 -0.0138,-0.89867 0.005,-0.42124 -0.17104,-1.07195 c 0,0 0.0415,-0.4286 0.0553,-0.49773 0.0138,-0.0691 0.0553,-1.05076 0.0553,-1.05076 l 0.0277,-0.80189"
             style="fill:none;stroke:#000000;stroke-width:0.19040239;stroke-linecap:butt;stroke-linejoin:miter;stroke-miterlimit:4;stroke-dasharray:none;stroke-opacity:1" />
          <path
             inkscape:connector-curvature="0"
             id="path5250"
             d="m 62.463917,215.40759 v 1.35493 l 0.0138,1.14754 0.1106,1.13371 0.12444,1.46553"
             style="fill:none;stroke:#000000;stroke-width:0.19040239;stroke-linecap:butt;stroke-linejoin:miter;stroke-miterlimit:4;stroke-dasharray:none;stroke-opacity:1" />
          <path
             inkscape:connector-curvature="0"
             id="path5252"
             d="m 66.187097,218.97578 0.47985,-0.59565 0.40095,-0.60833 0.27652,-0.51156 0.38712,-0.51155 0.19356,-0.76042 0.20739,-0.37329 0.20738,-0.71895 0.22122,-0.94015 0.0277,-0.53921 -0.0138,-0.78806 0.0138,-0.63599 -0.0968,-1.13371 -0.0968,-0.95398 -0.33181,-0.62216 -0.41478,-0.64981 -0.41477,-0.59451 -0.17974,-0.15209"
             style="fill:none;stroke:#000000;stroke-width:0.19040239;stroke-linecap:butt;stroke-linejoin:miter;stroke-miterlimit:4;stroke-dasharray:none;stroke-opacity:1" />
          <path
             inkscape:connector-curvature="0"
             id="path5254"
             d="m 65.132297,213.30607 0.13825,-0.88485 0.0553,-0.74659 0.16591,-0.94016 0.27652,-0.67746 0.29034,-0.69129 0.33182,-0.62216 0.4286,-0.59451 0.44242,-0.45625 0.3733,-0.31799 0.74659,-0.38712 0.45625,-0.19356 0.7466,-0.20739 0.5392,0.0277 0.76042,0.0968 0.49773,0.0553 0.29034,0.26269 0.52537,0.35947 c 0,0 0.20739,0.27651 0.20739,0.35947 0,0.083 0.0553,0.56686 0.0553,0.56686 l 0.0277,0.51155 c 0,0 0,0.29034 -0.0553,0.45625 -0.0553,0.16591 -0.20738,0.44243 -0.24886,0.53921 -0.0415,0.0968 -0.26269,0.41477 -0.26269,0.41477 l -0.16591,0.16591"
             style="fill:none;stroke:#000000;stroke-width:0.19040239;stroke-linecap:butt;stroke-linejoin:miter;stroke-miterlimit:4;stroke-dasharray:none;stroke-opacity:1" />
          <path
             inkscape:connector-curvature="0"
             id="path5256"
             d="m 70.579647,206.7803 c 0,0 0.20739,0.51155 0.23504,0.58069 0.0277,0.0691 0.33182,0.92632 0.33182,0.92632 l 0.27651,0.64982 0.12443,0.67745 0.20741,0.7881 0.0138,0.59448 0.0415,0.8572 -0.0138,0.96781 -0.0691,1.00928 -0.22121,1.43788 -0.31799,1.05076 -0.29034,0.8019 -0.70512,1.49318 -0.58068,0.71894 -0.8572,0.98163 -0.59451,0.62216 -0.4286,0.34565"
             style="fill:none;stroke:#000000;stroke-width:0.19040239;stroke-linecap:butt;stroke-linejoin:miter;stroke-miterlimit:4;stroke-dasharray:none;stroke-opacity:1" />
          <path
             inkscape:connector-curvature="0"
             id="path5258"
             d="m 62.795727,213.18164 c 0,0 0.0968,-1.07841 0.0968,-1.14754 0,-0.0691 0.0553,-1.05076 0.0553,-1.05076 0,0 0.22121,-0.94016 0.26269,-1.03693 0.0415,-0.0968 0.47008,-1.13372 0.47008,-1.13372 l 0.23503,-0.58068 0.48391,-0.67746 0.22121,-0.33182 c 0,0 0.59451,-0.63599 0.64981,-0.66364 0.0553,-0.0277 0.45625,-0.27652 0.45625,-0.27652 l 0.55304,-0.56686 0.63598,-0.34564 0.55303,-0.33182 0.73277,-0.35946 0.74659,-0.13827 0.47007,-0.083 0.84338,-0.083 0.59451,0.0691 1.09223,0.17974 0.78807,0.34564 0.71895,0.3733 0.44242,0.45625 0.44243,0.67747 0.20738,0.77424 0.1106,0.78807 0.0277,1.25814 -0.13826,0.82955 -0.23504,0.95398 -0.4286,0.71894 -0.51155,0.64981 -0.63599,0.4839 -0.95398,0.40095"
             style="fill:none;stroke:#000000;stroke-width:0.19040239;stroke-linecap:butt;stroke-linejoin:miter;stroke-miterlimit:4;stroke-dasharray:none;stroke-opacity:1" />
          <path
             inkscape:connector-curvature="0"
             id="path5260"
             d="m 49.730367,201.94128 c 0,-0.0968 0.16592,-0.64981 0.16592,-0.64981 0,0 0.1106,-0.33182 0.22121,-0.45626 0.1106,-0.12443 0.40094,-0.45625 0.40094,-0.45625 l 0.33182,-0.41477 0.38712,-0.34564 0.41478,-0.38713 0.48391,-0.37329 0.47007,-0.3733 0.56685,-0.23504 0.9125,-0.38712 0.60834,-0.0415 0.70511,-0.13826 0.44243,-0.0138 0.66364,0.0415 0.77424,0.083 0.7466,0.45625 0.49772,0.30416 0.67746,0.49773 0.40095,0.62216 0.26269,0.40095"
             style="fill:none;stroke:#000000;stroke-width:0.19040239;stroke-linecap:butt;stroke-linejoin:miter;stroke-miterlimit:4;stroke-dasharray:none;stroke-opacity:1" />
          <path
             inkscape:connector-curvature="0"
             id="path5262"
             d="m 62.007667,200.39279 0.0277,-0.78807 -0.33181,-0.70511 -0.29034,-0.41478 -0.59451,-0.67746 -0.82955,-0.76042 -0.59451,-0.45625 -0.9678,-0.62216 c 0,0 -0.81573,-0.4839 -0.88485,-0.4839 -0.0691,0 -0.74659,-0.13826 -0.89868,-0.13826 -0.15208,0 -0.62216,-0.0277 -0.84337,0.0277 -0.22122,0.0553 -0.62216,0.0415 -0.84337,0.0276 -0.22122,-0.0138 -0.45625,-0.0415 -0.60834,0 -0.15208,0.0415 -0.34565,0.083 -0.66363,0.19357 -0.318,0.1106 -0.76042,0.22121 -0.92633,0.26269 -0.16591,0.0415 -0.60834,0.22121 -0.71894,0.27651 -0.11061,0.0553 -0.69129,0.31799 -0.77424,0.38712 -0.083,0.0691 -0.51156,0.41477 -0.63599,0.51156 -0.12444,0.0968 -0.52538,0.27651 -0.64982,0.37329 -0.12443,0.0968 -0.5392,0.60834 -0.60833,0.69129 -0.0691,0.083 -0.4286,0.33182 -0.59451,0.51156 -0.16591,0.17973 -0.3733,0.41477 -0.47007,0.5392 -0.0968,0.12443 -0.30417,0.41477 -0.35947,0.49773 -0.0553,0.083 -0.34565,0.62216 -0.41478,0.73276 -0.0691,0.11061 -0.22121,0.38713 -0.26269,0.52539 -0.0415,0.13825 -0.30417,0.69129 -0.31799,0.77424 -0.0138,0.083 -0.0138,0.34565 -0.083,0.52537 -0.0691,0.17974 -0.0415,0.49774 -0.0691,0.62217 -0.0277,0.12443 -0.0691,0.52538 -0.0691,0.52538 v 0 0"
             style="fill:none;stroke:#000000;stroke-width:0.19040239;stroke-linecap:butt;stroke-linejoin:miter;stroke-miterlimit:4;stroke-dasharray:none;stroke-opacity:1" />
          <path
             inkscape:connector-curvature="0"
             id="path5264"
             d="m 52.025447,196.0515 -0.083,-0.67747 -0.23504,-1.07841 -0.12443,-0.49773 -0.19356,-0.69129 -0.19356,-0.66363 -0.16591,-0.47008 -0.23504,-0.33182 -0.17974,-0.37329 -0.34564,-0.34565 -0.4286,-0.19356 c 0,0 -0.47008,-0.0968 -0.53921,-0.0691 -0.0691,0.0277 -0.27651,0.0138 -0.27651,0.0138"
             style="fill:none;stroke:#000000;stroke-width:0.19040239;stroke-linecap:butt;stroke-linejoin:miter;stroke-miterlimit:4;stroke-dasharray:none;stroke-opacity:1" />
          <path
             inkscape:connector-curvature="0"
             id="path5266"
             d="m 54.251397,195.3602 -0.26268,-0.74658 -0.3733,-1.09224 -0.30417,-0.76042 -0.22121,-0.73277"
             style="fill:none;stroke:#000000;stroke-width:0.19040239;stroke-linecap:butt;stroke-linejoin:miter;stroke-miterlimit:4;stroke-dasharray:none;stroke-opacity:1" />
          <path
             inkscape:connector-curvature="0"
             id="path5268"
             d="m 50.794957,191.64107 0.0415,0.69129 c 0,0 -0.0968,0.52538 -0.11061,0.58069 -0.0138,0.0553 -0.26269,0.47007 -0.31799,0.5392 -0.0553,0.0691 -0.81572,0.47008 -0.87103,0.51155 -0.0553,0.0415 -0.58068,0.15209 -0.58068,0.15209 l -0.73277,-0.16592 -0.56685,-0.31798 -0.56686,-0.40096 -0.35947,-0.44242 c 0,0 -0.19356,-0.45625 -0.19356,-0.5392 0,-0.083 -0.0968,-0.55303 -0.0968,-0.62216 0,-0.0691 0.0415,-0.66364 0.0415,-0.66364 l 0.30417,-0.8019 c 0,0 0.19356,-0.22121 0.24886,-0.31799 0.0553,-0.0968 0.22122,-0.37329 0.30417,-0.4286 0.083,-0.0553 0.3733,-0.22121 0.47008,-0.29034 0.0968,-0.0691 0.37329,-0.26269 0.47007,-0.27652 0.0968,-0.0138 0.33182,-0.12443 0.33182,-0.12443"
             style="fill:none;stroke:#000000;stroke-width:0.19040239;stroke-linecap:butt;stroke-linejoin:miter;stroke-miterlimit:4;stroke-dasharray:none;stroke-opacity:1" />
          <path
             inkscape:connector-curvature="0"
             id="path5270"
             d="m 52.831017,171.47967 c 0.10332,0.16788 4.51994,9.93093 4.51994,9.93093 l -0.0129,0.1808 -5.06232,5.16563 -6.31499,-4.22291 3.68051,-7.64513 1.26558,-3.3835 0.0646,-0.0129"
             style="fill:none;stroke:#000000;stroke-width:0.19040239;stroke-linecap:butt;stroke-linejoin:miter;stroke-miterlimit:4;stroke-dasharray:none;stroke-opacity:1" />
          <path
             inkscape:connector-curvature="0"
             id="path5272"
             d="m 49.641237,174.88899 -4.99775,2.11791 0.32286,-2.77653 0.95564,-2.49242 4.18416,-1.52386"
             style="fill:none;stroke:#000000;stroke-width:0.19040239;stroke-linecap:butt;stroke-linejoin:miter;stroke-miterlimit:4;stroke-dasharray:none;stroke-opacity:1" />
          <path
             inkscape:connector-curvature="0"
             id="path5274"
             d="m 55.090987,176.16748 4.5845,1.36889 -0.16788,-1.5626 -0.43908,-1.57552 -0.29703,-1.43346 -0.0129,-0.0129"
             style="fill:none;stroke:#000000;stroke-width:0.19040239;stroke-linecap:butt;stroke-linejoin:miter;stroke-miterlimit:4;stroke-dasharray:none;stroke-opacity:1" />
          <path
             inkscape:connector-curvature="0"
             id="path5276"
             d="m 53.799577,170.53694 4.959,2.41492 6.26334,2.56992 4.53284,-6.52161 -2.11791,-2.09209 -3.55137,-2.99607 -8.51038,4.23582 -0.76193,0.11623 -0.89108,0.78776"
             style="fill:none;stroke:#000000;stroke-width:0.19040239;stroke-linecap:butt;stroke-linejoin:miter;stroke-miterlimit:4;stroke-dasharray:none;stroke-opacity:1" />
          <path
             inkscape:connector-curvature="0"
             id="path5278"
             d="m 57.932087,166.75311 0.77484,-2.20831 0.28411,-1.21392 -0.0259,-0.71027 -1.93711,0.74901 -2.35036,1.17518 -0.0646,0.0387"
             style="fill:none;stroke:#000000;stroke-width:0.19040239;stroke-linecap:butt;stroke-linejoin:miter;stroke-miterlimit:4;stroke-dasharray:none;stroke-opacity:1" />
          <path
             inkscape:connector-curvature="0"
             id="path5280"
             d="m 52.792277,168.16075 0.76193,-0.83942 1.1235,-2.77653 0.49076,-1.5626 0.50365,-1.30432 1.93712,-4.54576 v -0.15497 l -2.50534,-2.7507 h -0.0258 l -3.29312,-3.18978 -0.0258,0.0387 -1.93713,1.69175 -3.758,4.02919 -0.0516,0.452 2.33744,5.19146 1.51095,3.87422 0.24537,0.86525 0.54239,0.51656 0.0517,0.46491"
             style="fill:none;stroke:#000000;stroke-width:0.19040239;stroke-linecap:butt;stroke-linejoin:miter;stroke-miterlimit:4;stroke-dasharray:none;stroke-opacity:1" />
          <path
             inkscape:connector-curvature="0"
             id="path5284"
             d="m 50.106147,167.17928 -0.77484,0.27119 -0.33577,0.67154"
             style="fill:none;stroke:#000000;stroke-width:0.19040239;stroke-linecap:butt;stroke-linejoin:miter;stroke-miterlimit:4;stroke-dasharray:none;stroke-opacity:1" />
          <path
             inkscape:connector-curvature="0"
             id="path5286"
             d="m 49.176337,164.71269 -1.1881,-1.0073 -1.23975,-0.81359 -0.69736,-0.38742 -0.90399,-0.24537 -0.25828,-0.0904 0.74902,2.04043 c 0,0 0.42617,0.9169 0.45199,1.0073 0.0258,0.0904 0.52948,1.17518 0.52948,1.17518 l 0.29702,0.69736"
             style="fill:none;stroke:#000000;stroke-width:0.19040239;stroke-linecap:butt;stroke-linejoin:miter;stroke-miterlimit:4;stroke-dasharray:none;stroke-opacity:1" />
          <path
             inkscape:connector-curvature="0"
             id="path5288"
             d="m 50.015747,168.94851 -1.02021,-0.8265 -2.07917,-1.03313 -2.36327,-1.29141 -2.45368,-1.49803 -3.20269,-2.20831 -2.46659,2.62156 -1.64009,2.04042 -1.60135,2.04043 2.46659,2.99606 1.61426,1.62718 1.76923,1.34307 1.91129,-0.78776 2.11791,-1.02022 1.98877,-0.83941 0.86524,-0.37451"
             style="fill:none;stroke:#000000;stroke-width:0.19040239;stroke-linecap:butt;stroke-linejoin:miter;stroke-miterlimit:4;stroke-dasharray:none;stroke-opacity:1" />
          <path
             inkscape:connector-curvature="0"
             id="path5292"
             d="m 50.583977,172.16411 -0.78776,-0.16788 -0.46491,-0.58113 -0.1808,-0.46491 -0.0129,-0.30994"
             style="fill:none;stroke:#000000;stroke-width:0.19040239;stroke-linecap:butt;stroke-linejoin:miter;stroke-miterlimit:4;stroke-dasharray:none;stroke-opacity:1" />
          <path
             sodipodi:nodetypes="cccccccccccccccccccccsccccccc"
             inkscape:connector-curvature="0"
             id="path5294"
             d="m 53.722087,169.05182 0.15498,0.51656 -0.0258,0.452 -0.0517,0.51656 c 0,0 -0.16789,0.23245 -0.19372,0.29702 -0.0258,0.0646 -0.29702,0.3616 -0.29702,0.3616 l -0.47782,0.28411 -0.32285,0.11623 -0.33577,0.0904 -0.45199,0.0258 -0.74902,-0.21955 -0.42616,-0.25827 -0.21954,-0.25828 -0.15497,-0.37451 -0.0646,-0.38742 -0.16789,-0.59405 c 0,0 0.0517,-0.16789 0.0646,-0.24537 0.0129,-0.0775 0.0129,-0.42616 0.0129,-0.42616 l 0.2712,-0.3616 0.41325,-0.42616 c 0,0 0.14206,-0.10332 0.24537,-0.11623 0.10331,-0.0129 0.29702,-0.0904 0.37451,-0.0904 0.0775,0 0.30993,-0.0258 0.42616,-0.0129 0.11623,0.0129 0.6457,0.12914 0.6457,0.12914 l 0.40034,0.0904 0.33577,0.2712 c 0,0 0.34868,0.24537 0.36159,0.30994 0.0129,0.0646 0.23246,0.30994 0.23246,0.30994 z"
             style="fill:none;stroke:#000000;stroke-width:0.19040239;stroke-linecap:butt;stroke-linejoin:miter;stroke-miterlimit:4;stroke-dasharray:none;stroke-opacity:1" />
          <path
             inkscape:connector-curvature="0"
             id="path5296"
             d="m 53.306847,172.36802 0.3369,-0.10107 0.48288,-0.35936 0.28075,-0.29198 0.25829,-0.30321 0.0674,-0.26951"
             style="fill:none;stroke:#000000;stroke-width:0.19040239;stroke-linecap:butt;stroke-linejoin:miter;stroke-miterlimit:4;stroke-dasharray:none;stroke-opacity:1" />
          <path
             inkscape:connector-curvature="0"
             id="path5298"
             d="m 54.384917,168.44877 0.0225,-0.38182 -0.15722,-0.2246 -0.20214,-0.19091 -0.49381,-0.33011 v 0"
             style="fill:none;stroke:#000000;stroke-width:0.19040239;stroke-linecap:butt;stroke-linejoin:miter;stroke-miterlimit:4;stroke-dasharray:none;stroke-opacity:1" />
        </g>
      </g>
      <g
         inkscape:groupmode="layer"
         id="layer23"
         inkscape:label="U47_Kröklinje"
         style="display:inline">
        <path
           style="opacity:1;fill:none;stroke:#c00000;stroke-width:0.26458332px;stroke-linecap:butt;stroke-linejoin:miter;stroke-opacity:1"
           d="m 68.160206,220.67012 c 4.216025,-2.84554 3.676972,-8.38863 3.18879,-12.598 -1.36641,-2.72409 -4.244922,-5.67296 -6.975308,-6.84612 -2.908269,-1.24958 -6.778012,-1.15611 -9.823532,-0.91831 -3.77004,1.37248 -7.996312,0.74822 -11.121592,6.24737 -0.693452,1.46019 -1.696645,3.34642 -1.996051,5.31331 -0.378452,2.48616 0.05125,5.10119 0.140292,7.14758 0.534582,5.50958 4.130411,6.69339 3.715431,12.37638 -1.146563,2.18963 -4.267092,4.82858 -7.757858,2.72378 -1.677302,-1.70686 -4.718487,-2.6401 -5.809866,-9.56374 -1.14346,-4.27958 -2.177115,-7.74601 -2.811933,-11.98799 -0.971293,-4.27385 -2.674148,-9.09879 -3.126583,-13.3888 -0.99148,-6.11073 -1.55829,-10.72339 -2.568602,-17.93291 -0.405209,-2.89155 1.432026,-8.40155 1.942685,-12.24852 1.119867,-2.72571 3.973457,-8.39381 5.419797,-10.46559 2.001745,-3.54597 4.37812,-4.61266 6.017981,-6.13709 6.471379,-2.54096 9.83314,-2.76181 17.449902,-3.27996 3.660798,1.39907 9.685047,1.61844 11.191825,2.75311 2.980118,2.65956 5.095142,5.15887 6.939413,8.57103 2.548085,3.56151 3.018464,9.82723 4.082035,14.15501 1.194163,3.98046 1.246764,8.46698 1.416223,11.40202 -0.333965,5.89531 0.5655,9.35856 -0.3871,14.51256 0.198519,5.27165 1.27511,8.30957 -0.04164,13.41048 -0.03017,4.2741 -1.32396,13.27489 -2.026222,14.48262 -1.263469,4.71323 -3.187228,4.32355 -6.963271,5.50522 -3.928686,0.77185 -5.500514,-2.3741 -7.901683,-5.36507 -0.420724,-1.73879 -1.235735,-5.45461 -1.894553,-7.09707 -0.74782,-1.86435 -0.585138,-2.23545 -0.699759,-4.68683 -0.2673,-5.08489 -1.432536,-9.08945 -2.088897,-14.13054 -0.176596,-0.51968 -0.526789,-4.18597 -1.044104,-4.41211"
           id="path12287"
           inkscape:connector-curvature="0"
           sodipodi:nodetypes="ccsccsccccccscccccccccccccsccc" />
      </g>
    </g>
    <flowRoot
       xml:space="preserve"
       id="flowRoot6392"
       style="font-style:normal;font-variant:normal;font-weight:normal;font-stretch:normal;font-size:40px;line-height:1.25;font-family:'RUNEnglish 1';-inkscape-font-specification:'RUNEnglish 1, ';letter-spacing:0px;word-spacing:0px;fill:#000000;fill-opacity:1;stroke:none"
       transform="scale(0.26458333)"><flowRegion
         id="flowRegion6394"
         style="font-style:normal;font-variant:normal;font-weight:normal;font-stretch:normal;font-family:'RUNEnglish 1';-inkscape-font-specification:'RUNEnglish 1, '"><rect
           id="rect6396"
           width="674.28571"
           height="54.285713"
           x="104.28571"
           y="33.948257"
           style="font-style:normal;font-variant:normal;font-weight:normal;font-stretch:normal;font-family:'RUNEnglish 1';-inkscape-font-specification:'RUNEnglish 1, '" /></flowRegion><flowPara
         id="flowPara6398"
         style="font-style:normal;font-variant:normal;font-weight:normal;font-stretch:normal;font-family:'RUNEnglish 1';-inkscape-font-specification:'RUNEnglish 1, '" /></flowRoot>    <flowRoot
       xml:space="preserve"
       id="flowRoot6400"
       style="font-style:normal;font-variant:normal;font-weight:normal;font-stretch:normal;font-size:40px;line-height:1.25;font-family:Hnias;-inkscape-font-specification:Hnias;letter-spacing:0px;word-spacing:0px;fill:#000000;fill-opacity:1;stroke:none"
       transform="scale(0.26458333)"><flowRegion
         id="flowRegion6402"><rect
           id="rect6404"
           width="690"
           height="48.57143"
           x="62.857143"
           y="46.805397" /></flowRegion><flowPara
         id="flowPara6406" /></flowRoot>    <flowRoot
       xml:space="preserve"
       id="flowRoot6430"
       style="font-style:normal;font-variant:normal;font-weight:normal;font-stretch:normal;font-size:40px;line-height:1.25;font-family:Hnias;-inkscape-font-specification:Hnias;letter-spacing:0px;word-spacing:0px;fill:#000000;fill-opacity:1;stroke:none"
       transform="scale(0.26458333)"><flowRegion
         id="flowRegion6432"><rect
           id="rect6434"
           width="635.71429"
           height="41.42857"
           x="105.71429"
           y="979.66254" /></flowRegion><flowPara
         id="flowPara6436" /></flowRoot>  </g>
</svg>
